<?xml version="1.0" standalone="no"?>
<!DOCTYPE svg PUBLIC "-//W3C//DTD SVG 1.1//EN" "http://www.w3.org/Graphics/SVG/1.1/DTD/svg11.dtd" >
<svg xmlns="http://www.w3.org/2000/svg" xmlns:xlink="http://www.w3.org/1999/xlink" version="1.1">
<metadata></metadata>
<defs>
<font id="route_159ultralight" horiz-adv-x="1105" >
<font-face units-per-em="2048" ascent="1577" descent="-471" />
<missing-glyph horiz-adv-x="471" />
<glyph unicode="&#xfb01;" horiz-adv-x="1130" d="M281 1262q5 135 75.5 219t194.5 84q77 0 125 -39l-23 -33q-45 25 -104 25q-108 0 -164.5 -74.5t-56.5 -206.5v-182h264l-10 -45h-254v-1010h-49v1010h-175v45h175v45q0 94 2 162zM877 1432q25 10 49 0v-181q-24 -11 -49 0v181zM877 0v1051l49 12v-1063h-49z" />
<glyph unicode="&#xfb02;" horiz-adv-x="1130" d="M281 1262q5 135 75.5 219t194.5 84q77 0 125 -39l-23 -33q-45 25 -104 25q-108 0 -164.5 -74.5t-56.5 -206.5v-182h264l-10 -45h-254v-1010h-49v1010h-175v45h175v45q0 94 2 162zM877 1544l49 12v-1556h-49v1544z" />
<glyph horiz-adv-x="0" />
<glyph horiz-adv-x="682" />
<glyph unicode=" "  horiz-adv-x="471" />
<glyph unicode="&#x09;" horiz-adv-x="471" />
<glyph unicode="&#xa0;" horiz-adv-x="471" />
<glyph unicode="!" horiz-adv-x="462" d="M211 430l-6 1086h53l-6 -1086h-41zM186 0v236q25 8 50 0v-236q-25 -8 -50 0z" />
<glyph unicode="&#x22;" horiz-adv-x="393" d="M84 932l-4 543q25 8 49 0l-4 -543h-41zM268 932l-4 543q24 8 49 0l-4 -543h-41z" />
<glyph unicode="#" d="M950 838h-211l-55 -260h215v-46h-223l-111 -532h-47l109 532h-236l-110 -532h-48l111 532h-188v46h196l56 260h-201v45h209l110 530h47l-110 -530h237l111 530h47l-110 -530h202v-45zM637 578l55 260h-237l-56 -260h238z" />
<glyph unicode="$" d="M930 375q0 -137 -101 -226t-249 -100v-188h-50v186q-95 2 -190.5 30t-163.5 77l21 41q158 -99 344 -99q140 0 239 73.5t99 205.5q0 101 -67 176.5t-239 175.5q-93 53 -150.5 93t-105.5 88.5t-69 102t-21 119.5q0 72 27 131.5t72 98t100 62t115 30.5v188h51v-186 q173 0 307 -80l-18 -41q-129 72 -299 72q-126 0 -214.5 -72t-88.5 -198q0 -107 70.5 -183.5t252.5 -181.5q184 -106 256 -193.5t72 -201.5z" />
<glyph unicode="%" horiz-adv-x="1396" d="M389 893q-123 0 -194.5 95.5t-71.5 230.5q0 136 71 230.5t195 94.5t195 -94.5t71 -230.5q0 -135 -71.5 -230.5t-194.5 -95.5zM162 -29l1016 1573h57l-1016 -1573h-57zM389 938q99 0 158 83.5t59 197.5q0 115 -58.5 197.5t-158.5 82.5t-158.5 -82.5t-58.5 -197.5 q0 -114 59 -197.5t158 -83.5zM1008 -29q-123 0 -195 95.5t-72 230.5q0 136 71.5 231t195.5 95t195 -95t71 -231q0 -135 -71.5 -230.5t-194.5 -95.5zM1008 16q99 0 158 83.5t59 197.5q0 115 -58.5 198t-158.5 83t-158.5 -83t-58.5 -198q0 -114 59 -197.5t158 -83.5z" />
<glyph unicode="&#x26;" horiz-adv-x="1720" d="M1534 2l-45 -27l-242 269q-109 -136 -250.5 -204.5t-302.5 -68.5q-208 0 -341.5 105.5t-133.5 296.5q0 147 99 268t321 270q-95 105 -137.5 187t-42.5 176q0 102 77.5 186t204.5 84q129 0 203 -72.5t74 -179.5q0 -57 -17 -104t-58.5 -94t-92.5 -88t-137 -101l532 -588 q129 189 178 480l52 -9q-57 -305 -197 -503zM741 1497q-95 0 -162 -60.5t-67 -162.5q0 -88 40 -163t128 -171q164 108 224.5 181t60.5 171q0 85 -62 145t-162 60zM694 18q320 0 523 258l-545 601q-215 -140 -307.5 -254.5t-92.5 -247.5q0 -71 26 -134t76.5 -113.5t133 -80 t186.5 -29.5z" />
<glyph unicode="'" horiz-adv-x="208" d="M84 932l-4 543q25 8 49 0l-4 -543h-41z" />
<glyph unicode="(" horiz-adv-x="610" d="M518 -164q-76 77 -130 153.5t-98.5 178.5t-66.5 233.5t-22 294.5t22 294.5t66.5 233.5t98.5 178.5t130 153.5l37 -34q-107 -113 -170 -220t-99 -257t-36 -349q0 -292 74.5 -482.5t230.5 -342.5z" />
<glyph unicode=")" horiz-adv-x="610" d="M92 1556q76 -77 130 -153.5t98.5 -178.5t67 -233.5t22.5 -294.5t-22.5 -294.5t-67 -233.5t-98.5 -178.5t-130 -153.5l-37 35q107 113 170 220t99 256.5t36 348.5t-36.5 352.5t-101 263t-167.5 210.5z" />
<glyph unicode="*" d="M354 201l-43 30l230 304l-365 112l17 51l360 -125l-6 383h53l-6 -383l360 125l17 -51l-365 -112l230 -304l-43 -30l-220 311z" />
<glyph unicode="+" horiz-adv-x="1212" d="M1067 705v-46h-436v-499h-49v499h-437v46h437v499h49v-499h436z" />
<glyph unicode="," horiz-adv-x="319" d="M25 -338q96 165 128 288.5t7 266.5q23 19 49 19q23 -158 -7.5 -283t-129.5 -291h-47z" />
<glyph unicode="-" horiz-adv-x="794" d="M188 573v45h418v-45h-418z" />
<glyph unicode="." horiz-adv-x="331" d="M102 0v236q25 8 50 0v-236q-25 -8 -50 0z" />
<glyph unicode="/" horiz-adv-x="681" d="M88 -61l457 1597h49l-457 -1597h-49z" />
<glyph unicode="0" d="M553 1544q100 0 175.5 -41.5t123 -111t77 -172.5t41 -214t11.5 -247q0 -787 -428 -787q-100 0 -175.5 41.5t-123 111.5t-77 173t-41 214t-11.5 247q0 786 428 786zM553 18q100 0 173.5 53t118 152t66 232t21.5 303t-21.5 302.5t-66 232t-118 152t-173.5 52.5 t-173.5 -52.5t-118 -152t-66 -232t-21.5 -302.5t21.5 -303t66 -232t118 -152t173.5 -53z" />
<glyph unicode="1" d="M698 1516h43v-1516h-49v1452l-432 -235l-18 38z" />
<glyph unicode="2" d="M205 49l772 -2l-10 -47h-842v23l534 739q112 154 158.5 257t46.5 200q0 138 -87 208t-226 70q-159 0 -305 -102l-21 35q148 114 328 114q173 0 269 -86t96 -239q0 -100 -52 -210.5t-168 -271.5z" />
<glyph unicode="3" d="M657 823q69 -15 123.5 -46.5t88 -71t56 -87.5t31.5 -93t9 -91q0 -140 -71 -247t-186 -161.5t-253 -54.5q-100 0 -174.5 16t-151.5 58l12 43q84 -39 155.5 -54.5t166.5 -15.5q124 0 224.5 47t162 142.5t61.5 224.5q0 56 -13 106.5t-42.5 97.5t-73.5 81t-111.5 54 t-150.5 20h-141v47h145q158 0 256.5 103.5t98.5 244.5q0 142 -93.5 226.5t-240.5 84.5q-174 0 -324 -102l-22 35q147 114 356 114q101 0 184.5 -40.5t136 -124t52.5 -195.5q0 -118 -71 -220.5t-200 -140.5z" />
<glyph unicode="4" d="M1038 524l-10 -47h-211v-477h-49v477l-694 -2v23l692 1022h51v-996h221zM768 1440l-618 -916h618v916z" />
<glyph unicode="5" d="M410 915q256 0 397 -121t141 -350q0 -204 -140 -338.5t-353 -134.5q-175 0 -310 70l15 39q80 -35 147 -48.5t150 -13.5q195 0 316.5 124.5t121.5 301.5q0 198 -121 311t-373 113h-137l-16 15l76 637h622l-10 -47h-571l-66 -558h111z" />
<glyph unicode="6" d="M567 936q186 0 310 -127.5t124 -335.5q0 -218 -121 -360t-311 -142q-206 0 -320 174t-114 533q0 89 7 172t24.5 171t44.5 163t70 142.5t98.5 115t132 75t168.5 27.5q166 0 278 -88l-22 -37q-67 43 -125.5 60.5t-130.5 17.5q-100 0 -181.5 -38.5t-136.5 -104.5t-94 -158 t-58 -193.5t-24 -216.5q66 69 167.5 109.5t213.5 40.5zM571 18q74 0 141.5 30t120 85.5t84 143t31.5 194.5q0 186 -109 302t-282 116q-222 0 -371 -156q-2 -16 -2 -55q0 -174 28 -303t80.5 -206t122 -114t156.5 -37z" />
<glyph unicode="7" d="M147 1516h926v-23q-230 -273 -423.5 -697.5t-258.5 -795.5h-53q183 844 655 1468h-856z" />
<glyph unicode="8" d="M649 782q160 -57 252 -162.5t92 -244.5q0 -180 -127 -292t-317 -112q-89 0 -166 25t-137.5 73.5t-95.5 128t-35 181.5q0 152 97 270.5t249 163.5q-137 68 -200.5 156.5t-63.5 214.5q0 69 28.5 134t78 115t121.5 80.5t153 30.5q175 0 277.5 -104.5t102.5 -257.5 q0 -127 -80.5 -234t-228.5 -166zM248 1184q0 -135 83 -224.5t265 -156.5q148 50 229.5 151.5t81.5 227.5q0 129 -88 222t-239 93q-145 0 -238.5 -93.5t-93.5 -219.5zM549 18q57 0 111.5 12.5t105.5 41t89.5 69t61.5 101t23 133.5q0 144 -103 241t-327 175 q-162 -51 -252 -155.5t-90 -254.5q0 -90 32 -161.5t86 -114.5t121 -65t142 -22z" />
<glyph unicode="9" d="M537 1546q206 0 320 -173.5t114 -532.5q0 -89 -7 -172t-24.5 -171.5t-44.5 -163.5t-70 -142.5t-98.5 -115t-132 -75t-168.5 -27.5q-167 0 -279 88l23 37q67 -43 125.5 -60.5t130.5 -17.5q100 0 181.5 38.5t136.5 104.5t94 158t58 193.5t24 216.5q-66 -69 -167.5 -109 t-213.5 -40q-186 0 -310.5 127t-124.5 335q0 218 121.5 360t311.5 142zM549 629q223 0 371 155q2 16 2 56q0 174 -28 302.5t-80.5 205.5t-122 114t-156.5 37q-74 0 -141.5 -29.5t-120 -85t-84 -143t-31.5 -194.5q0 -186 109 -302t282 -116z" />
<glyph unicode=":" horiz-adv-x="319" d="M102 821v236q25 8 50 0v-236q-25 -8 -50 0zM102 0v236q25 8 50 0v-236q-25 -8 -50 0z" />
<glyph unicode=";" horiz-adv-x="319" d="M106 821v236q25 8 50 0v-236q-25 -8 -50 0zM-12 -338q96 165 128 288.5t7 266.5q23 19 49 19q23 -158 -7.5 -283t-129.5 -291h-47z" />
<glyph unicode="&#x3c;" horiz-adv-x="940" d="M827 942v-57l-620 -342l620 -342v-58l-677 381v37z" />
<glyph unicode="=" horiz-adv-x="1212" d="M242 719v45h729v-45h-729zM242 424v45h729v-45h-729z" />
<glyph unicode="&#x3e;" horiz-adv-x="940" d="M113 942l678 -381v-37l-678 -381v58l620 342l-620 342v57z" />
<glyph unicode="?" horiz-adv-x="919" d="M803 1182q0 -160 -103 -275.5t-266 -163.5v-313h-45v350q163 44 262 148.5t99 249.5q0 151 -94.5 235t-245.5 84q-167 0 -306 -117l-28 35q145 129 334 129q179 0 286 -98.5t107 -263.5zM367 236q25 8 49 0v-236q-24 -8 -49 0v236z" />
<glyph unicode="@" horiz-adv-x="2080" d="M1061 1053q82 0 138.5 -16t113.5 -54v-577q0 -127 27.5 -178.5t80.5 -51.5q57 0 112.5 17t109.5 56.5t95 96t66 142.5t25 190q0 215 -97.5 384t-271 262t-393.5 93q-185 0 -345.5 -70.5t-271 -189.5t-173 -278t-62.5 -334q0 -180 60 -333t164 -257.5t247 -163.5t307 -59 q150 0 307 45.5t293 128.5l19 -33q-298 -186 -621 -186q-174 0 -325.5 60.5t-262 170t-174 271t-63.5 354.5q0 186 66.5 354t183.5 293t287 198.5t366 73.5q148 0 276.5 -39.5t225.5 -111t166.5 -169t105 -216t35.5 -248.5q0 -129 -38 -234.5t-102 -172.5t-146.5 -103.5 t-174.5 -36.5q-59 0 -98.5 38t-48.5 112q-123 -170 -297 -170q-142 0 -228 108.5t-86 333.5q0 253 109.5 376.5t292.5 123.5zM977 156q181 0 289 192l2 606q-79 54 -207 54q-163 0 -255.5 -112.5t-92.5 -342.5q0 -194 69.5 -295.5t194.5 -101.5z" />
<glyph unicode="A" horiz-adv-x="1339" d="M1184 0l-205 588h-637l-223 -588h-56l586 1516h51l541 -1516h-57zM674 1448l-312 -813h599z" />
<glyph unicode="B" horiz-adv-x="1198" d="M709 784q155 -22 242 -119t87 -257q0 -176 -105 -278t-278 -120q-110 -10 -225 -10h-194h-31v1516h49h143q98 0 189 -3q176 -12 268 -106.5t92 -265.5q0 -120 -70 -222t-167 -135zM504 1468h-250v-665h360q100 0 189.5 98t89.5 240q0 171 -96.5 249t-292.5 78zM518 47 q467 0 467 356q0 163 -105.5 258t-295.5 95h-330v-709h264z" />
<glyph unicode="C" horiz-adv-x="1275" d="M733 -29q-302 0 -468.5 190t-166.5 584q0 364 199 581.5t524 217.5q206 0 355 -76l-17 -36q-143 65 -338 65q-144 0 -267 -51t-212 -145.5t-139.5 -237.5t-50.5 -318q0 -189 42 -330t120 -227t182 -128t235 -42q120 0 217 30t195 95l22 -37q-191 -135 -432 -135z" />
<glyph unicode="D" horiz-adv-x="1415" d="M205 0v1516h295q136 0 223 -11q131 -18 236.5 -68t187 -134t126 -212.5t44.5 -293.5q0 -133 -31 -249.5t-85 -203.5t-128 -154.5t-158.5 -109t-177.5 -60.5q-109 -20 -266 -20h-266zM254 47h287q157 0 290 51t229 145.5t150 236.5t54 315q0 337 -184 505t-513 168h-313 v-1421z" />
<glyph unicode="E" horiz-adv-x="1071" d="M205 0v1516h749l-10 -48h-690v-671h647l-10 -47h-637v-703h709l-11 -47h-747z" />
<glyph unicode="F" horiz-adv-x="1062" d="M205 0v1516h760l-11 -48h-700v-675h666l-11 -48h-655v-745h-49z" />
<glyph unicode="G" horiz-adv-x="1323" d="M1120 727h49v-657q-70 -45 -186.5 -72t-241.5 -27q-104 0 -196 25t-175 83.5t-142.5 146t-94.5 220.5t-35 299q0 195 50.5 348t141 251t213.5 149t271 51q238 0 383 -71l-16 -37q-80 34 -160.5 47.5t-206.5 13.5q-131 0 -242.5 -45t-198.5 -134t-136.5 -236t-49.5 -337 q0 -162 34.5 -289.5t91.5 -208.5t136 -133.5t161 -74t173 -21.5q238 0 377 76v633z" />
<glyph unicode="H" horiz-adv-x="1462" d="M205 0v1516h49v-728h954v728h49v-1516h-49v741h-954v-741h-49z" />
<glyph unicode="I" horiz-adv-x="458" d="M205 0v1516h49v-1516h-49z" />
<glyph unicode="J" horiz-adv-x="694" d="M244 -29q-82 0 -135 23l10 41q64 -17 123 -17q109 0 153.5 66t44.5 217v1215h49v-1106q0 -148 -2 -183q-6 -122 -67.5 -189t-175.5 -67z" />
<glyph unicode="K" horiz-adv-x="1142" d="M205 0v1516h49v-1516h-49zM1008 0l-709 752l735 764l45 -21l-714 -743l714 -752h-71z" />
<glyph unicode="L" horiz-adv-x="1101" d="M205 0v1516h49v-1469h764l-10 -47h-803z" />
<glyph unicode="M" horiz-adv-x="1865" d="M1681 0h-47l-143 1444l-549 -1403h-47l-500 1384l-166 -1425h-45l174 1516h56l508 -1403l548 1403h62z" />
<glyph unicode="N" horiz-adv-x="1495" d="M1243 1516h47v-1516h-41l-997 1417v-1417h-47v1516h39l999 -1416v1416z" />
<glyph unicode="O" horiz-adv-x="1523" d="M762 1544q138 0 258 -51.5t210.5 -148.5t142.5 -248t52 -338t-52 -338t-142.5 -248t-210.5 -149t-258 -52t-258 52t-211 149t-143 248t-52 338q0 150 34 278t94.5 220.5t144 158t182.5 97.5t209 32zM762 18q128 0 239 50t193.5 142t130 233.5t47.5 314.5t-47.5 314 t-130 233.5t-193.5 142t-239 49.5t-239 -49.5t-193.5 -142t-130 -233.5t-47.5 -314t47.5 -314.5t130 -233.5t193.5 -142t239 -50z" />
<glyph unicode="P" horiz-adv-x="1112" d="M623 1511q193 -21 293 -137t100 -293t-128.5 -301t-328.5 -133q-74 -4 -207 -4h-98v-643h-49v1516h190q145 0 228 -5zM510 690q208 0 330.5 112t122.5 279q0 82 -24.5 150.5t-74 122.5t-132 84t-191.5 30h-287v-778h256z" />
<glyph unicode="Q" horiz-adv-x="1523" d="M1425 758q0 -163 -39.5 -298.5t-110.5 -231t-165 -157t-207 -85.5l463 -396l-49 -26l-387 340q-41 37 -72.5 50t-95.5 17q-138 0 -258 52t-211 149t-143 248t-52 338q0 150 34 278t94.5 220.5t144 158t182.5 97.5t209 32q138 0 258 -51.5t210.5 -148.5t142.5 -248 t52 -338zM152 758q0 -173 47.5 -314.5t130 -233.5t193.5 -142t239 -50t239 50t193.5 142t130 233.5t47.5 314.5t-47.5 314t-130 233.5t-193.5 142t-239 49.5t-239 -49.5t-193.5 -142t-130 -233.5t-47.5 -314z" />
<glyph unicode="R" horiz-adv-x="1173" d="M993 0l-323 688h-416v-688h-49v1516h246q128 0 190 -7q179 -21 273 -129t94 -284q0 -157 -81 -266t-208 -134l332 -696h-58zM254 735h391q75 0 136 32t97.5 84.5t56 114.5t19.5 126q0 188 -105.5 282t-336.5 94h-258v-733z" />
<glyph unicode="S" horiz-adv-x="1116" d="M526 -29q-241 0 -393 135l21 44q89 -72 176.5 -102t204.5 -30q93 0 174 35t133.5 108.5t52.5 170.5q0 116 -78 211t-278 219q-185 116 -255.5 207.5t-70.5 218.5q0 159 122 257.5t306 98.5q162 0 293 -76l-16 -38q-75 38 -137 52.5t-150 14.5q-165 0 -265 -89t-100 -220 q0 -108 69 -193t245 -194q195 -122 281.5 -229.5t86.5 -237.5q0 -106 -57.5 -189.5t-153.5 -128.5t-211 -45z" />
<glyph unicode="T" horiz-adv-x="1097" d="M516 0v1468h-485v48h1040l-20 -48h-486v-1468h-49z" />
<glyph unicode="U" horiz-adv-x="1271" d="M635 -29q-405 0 -445 435q-6 68 -6 217v893h49v-1014q0 -251 107.5 -367.5t296.5 -116.5q401 0 401 484v1014h49v-893q0 -149 -6 -217q-40 -435 -446 -435z" />
<glyph unicode="V" horiz-adv-x="1296" d="M1184 1516h55l-586 -1516h-51l-541 1516h54l514 -1450z" />
<glyph unicode="W" horiz-adv-x="1912" d="M1804 1516h51l-448 -1516h-64l-387 1411l-419 -1411h-56l-420 1516h52l397 -1442l418 1399h59l391 -1420z" />
<glyph unicode="X" horiz-adv-x="1280" d="M1178 1516l-480 -742l480 -774h-64l-446 735l-475 -735h-58l502 770l-444 746h57l420 -705l450 705h58z" />
<glyph unicode="Y" horiz-adv-x="1097" d="M1069 1516l-498 -861v-655h-49v655l-491 861h55l463 -807l463 807h57z" />
<glyph unicode="Z" horiz-adv-x="1245" d="M233 47h916l-21 -47h-964v25l848 1443h-789v48h856v-25z" />
<glyph unicode="[" horiz-adv-x="561" d="M496 1483h-222v-1602h222v-45h-271v1647v45h271v-45z" />
<glyph unicode="\" horiz-adv-x="681" d="M594 -61h-49l-457 1597h49z" />
<glyph unicode="]" horiz-adv-x="561" d="M336 1528v-1647v-45h-270v45h221v1602h-221v45h270z" />
<glyph unicode="^" horiz-adv-x="983" d="M811 553h-53l-264 621l-269 -621h-53l301 680h41z" />
<glyph unicode="_" horiz-adv-x="1024" d="M188 -106v45h648v-45h-648z" />
<glyph unicode="`" horiz-adv-x="407" d="M281 1237l-199 319h63l181 -319h-45z" />
<glyph unicode="a" horiz-adv-x="999" d="M838 0l-52 -6l-22 100q-69 -56 -164 -89.5t-180 -33.5q-138 0 -216.5 75.5t-78.5 232.5q0 153 105.5 232t306.5 79q122 0 225 -21v172q0 150 -66 223.5t-213 73.5q-137 0 -262 -71l-20 39q130 79 293 79q133 0 218 -69t95 -205q4 -45 4 -149v-478q0 -74 27 -184zM176 281 q0 -129 62.5 -196t185.5 -67q82 0 174 32t164 95v377q-103 21 -227 21q-359 0 -359 -262z" />
<glyph unicode="b" horiz-adv-x="1101" d="M539 1085q111 0 190.5 -26.5t139 -88t89 -168.5t29.5 -263q0 -267 -112 -417.5t-340 -150.5q-196 0 -330 56v1517l49 12v-516q136 45 285 45zM535 18q69 0 126.5 15.5t109.5 53t88.5 96t57.5 149.5t21 209q0 138 -25 234t-76.5 154t-123.5 83.5t-172 25.5 q-156 0 -287 -45v-936q127 -39 281 -39z" />
<glyph unicode="c" horiz-adv-x="925" d="M510 -29q-395 0 -395 543q0 292 120 431.5t353 139.5q122 0 231 -38l-14 -41q-106 32 -227 32q-204 0 -309 -127t-105 -395q0 -247 90 -372.5t260 -125.5q165 0 303 66l14 -41q-153 -72 -321 -72z" />
<glyph unicode="d" horiz-adv-x="1101" d="M848 1544l49 12v-1521q-165 -64 -334 -64q-111 0 -190.5 26.5t-139 88t-89 169t-29.5 263.5q0 267 112 417t340 150q169 0 281 -36v495zM164 516q0 -183 46 -294t131.5 -157.5t219.5 -46.5q156 0 287 45v936q-127 39 -281 39q-87 0 -156 -25.5t-126.5 -83.5t-89 -162.5 t-31.5 -250.5z" />
<glyph unicode="e" horiz-adv-x="1001" d="M522 18q165 0 303 66l15 -41q-153 -72 -322 -72q-206 0 -304.5 132.5t-98.5 418.5t109 424.5t298 138.5q164 0 248 -94.5t98 -288.5q2 -68 2 -163h-708q0 -147 25 -250t73.5 -161.5t112 -84t149.5 -25.5zM520 1038q-165 0 -257 -114.5t-101 -339.5h659q1 104 -11 182 t-36 130t-62 83.5t-84.5 45t-107.5 13.5z" />
<glyph unicode="f" horiz-adv-x="671" d="M549 1518q-108 0 -164.5 -74.5t-56.5 -206.5v-182h264l-10 -45h-254v-1010h-49v1010h-175v45h175v45q0 94 2 162q5 135 75.5 219t194.5 84q77 0 125 -39l-23 -33q-45 25 -104 25z" />
<glyph unicode="g" horiz-adv-x="1073" d="M963 1057l-11 -45h-188q125 -104 125 -264q0 -78 -35 -147t-98 -116q-42 -44 -61 -78.5t-19 -78.5q0 -71 82 -133q33 -25 56 -47t52.5 -59.5t45.5 -86t16 -104.5q0 -150 -121.5 -249.5t-327.5 -99.5q-168 0 -277.5 86.5t-109.5 245.5q0 110 61.5 189t161.5 117t226 38 q72 0 147 -20q-57 48 -57 119q0 62 37 112q-70 -26 -148 -26q-151 0 -252.5 95t-101.5 234q0 148 107.5 247t263.5 99q88 0 155 -28h271zM840 748q0 126 -85 208t-223 82q-130 0 -223.5 -84.5t-93.5 -214.5q0 -124 90.5 -203t220.5 -79q133 0 223.5 78t90.5 213zM879 -104 q0 158 -150 260q-85 24 -178 24q-190 0 -300 -80t-110 -215q0 -143 96.5 -215.5t247.5 -72.5q187 0 290.5 84.5t103.5 214.5z" />
<glyph unicode="h" horiz-adv-x="1110" d="M928 813q4 -47 4 -156v-657h-49v748q0 155 -73.5 222.5t-238.5 67.5q-138 0 -317 -86v-952h-49v1544l49 12v-552q169 81 332 81q316 0 342 -272z" />
<glyph unicode="i" horiz-adv-x="458" d="M205 1251v181q25 10 49 0v-181q-24 -11 -49 0zM205 0v1051l49 12v-1063h-49z" />
<glyph unicode="j" horiz-adv-x="505" d="M252 1251v181q24 10 49 0v-181q-25 -11 -49 0zM74 -451l-19 48q112 27 154.5 109.5t42.5 252.5v1110l49 12v-958q0 -207 -4 -273q-6 -116 -53.5 -187t-169.5 -114z" />
<glyph unicode="k" horiz-adv-x="1038" d="M205 0v1544l49 12v-1556h-49zM375 561l573 -561h-76l-565 559l543 506l68 -8z" />
<glyph unicode="l" horiz-adv-x="458" d="M205 0v1544l49 12v-1556h-49z" />
<glyph unicode="m" horiz-adv-x="1665" d="M1483 813q4 -47 4 -156v-657h-49v748q0 151 -64 220.5t-186 69.5q-99 0 -175 -18.5t-182 -73.5q30 -61 35 -133q4 -47 4 -156v-657h-49v748q0 152 -67 221t-203 69q-129 0 -297 -53v-985h-49v1051l49 12v-37q151 59 311 59q174 0 244 -100q106 57 193 78.5t200 21.5 q255 0 281 -272z" />
<glyph unicode="n" horiz-adv-x="1110" d="M928 813q4 -47 4 -156v-657h-49v748q0 155 -73.5 222.5t-238.5 67.5q-138 0 -317 -86v-952h-49v1051l49 12v-59q169 81 332 81q316 0 342 -272z" />
<glyph unicode="o" horiz-adv-x="1134" d="M567 1083q213 0 333 -144t120 -411t-120 -411t-333 -144t-332.5 144t-119.5 411t119.5 411t332.5 144zM567 20q183 0 292.5 127.5t109.5 380.5t-109.5 380.5t-292.5 127.5t-292 -127.5t-109 -380.5t109 -380.5t292 -127.5z" />
<glyph unicode="p" horiz-adv-x="1101" d="M539 1085q111 0 190.5 -26.5t139 -88t89 -168.5t29.5 -263q0 -267 -112 -417.5t-340 -150.5q-166 0 -281 37v-420l-49 -12v1446q162 63 334 63zM535 18q69 0 126.5 15.5t109.5 53t88.5 96t57.5 149.5t21 209q0 138 -25 234t-76.5 154t-123.5 83.5t-172 25.5 q-156 0 -287 -45v-936q127 -39 281 -39z" />
<glyph unicode="q" horiz-adv-x="1101" d="M567 1085q199 0 330 -55v-1442l-49 -12v440q-136 -45 -285 -45q-111 0 -190.5 26.5t-139 88t-89 169t-29.5 263.5q0 267 112 417t340 150zM561 18q156 0 287 45v936q-127 39 -281 39q-87 0 -156 -25.5t-126.5 -83.5t-89 -162.5t-31.5 -250.5q0 -183 46 -294t131.5 -157.5 t219.5 -46.5z" />
<glyph unicode="r" horiz-adv-x="610" d="M205 0v1051l49 12v-115q78 137 195 137q60 0 96 -26l-17 -41q-33 20 -84 20q-61 0 -113.5 -50t-76.5 -124v-864h-49z" />
<glyph unicode="s" horiz-adv-x="935" d="M428 -29q-148 0 -274 97l22 38q55 -43 123.5 -65.5t132.5 -22.5q128 0 209.5 61t81.5 175q0 95 -64.5 153t-222.5 134q-41 20 -65.5 33t-62 40.5t-59 55t-38 70t-16.5 91.5q0 122 88.5 192.5t222.5 70.5q142 0 264 -78l-20 -41q-109 72 -240 72q-120 0 -193 -57t-73 -156 q0 -50 16 -88t52 -68t66.5 -47.5t86.5 -44.5q87 -43 136 -71.5t92.5 -68t61 -85t17.5 -107.5q0 -133 -96 -208t-248 -75z" />
<glyph unicode="t" horiz-adv-x="718" d="M635 51l16 -35q-85 -45 -170 -45q-112 0 -166 59.5t-61 153.5q-4 55 -4 193v635h-156v45h156v313l49 12v-325h330l-11 -45h-319v-758q0 -127 48 -181.5t140 -54.5q81 0 148 33z" />
<glyph unicode="u" horiz-adv-x="1097" d="M844 1051l49 12v-1063h-49v72q-152 -101 -332 -101q-316 0 -342 273q-4 47 -4 155v652l49 12v-754q0 -155 73 -223t238 -68q150 0 318 101v932z" />
<glyph unicode="v" horiz-adv-x="1026" d="M911 1057h56l-422 -1057h-47l-400 1057h58l366 -996z" />
<glyph unicode="w" horiz-adv-x="1595" d="M1470 1057h50l-355 -1057h-49l-291 942l-321 -942h-51l-338 1057h53l311 -989l324 946h45l295 -944z" />
<glyph unicode="x" horiz-adv-x="997" d="M899 1057l-375 -520l367 -537h-68l-327 500l-342 -500h-60l371 535l-344 522h63l314 -488l336 488h65z" />
<glyph unicode="y" horiz-adv-x="997" d="M885 1057h53l-360 -901q-116 -291 -227 -427.5t-255 -177.5l-30 41q123 30 224 139.5t173 276.5l-373 1049h55l347 -996z" />
<glyph unicode="z" horiz-adv-x="974" d="M199 45h694l-21 -45h-739v35l627 977h-576v45h643v-29z" />
<glyph unicode="{" horiz-adv-x="651" d="M541 1501q-144 0 -144 -198q0 -40 13 -160q18 -159 18 -236q0 -205 -166 -225q166 -20 166 -225q0 -77 -18 -236q-13 -120 -13 -160q0 -103 37 -153.5t107 -44.5h24v-45h-22q-195 0 -195 248q0 55 14 176q17 160 17 217q0 91 -37 140t-125 58v50q88 9 125 58t37 140 q0 57 -17 217q-14 121 -14 176q0 248 195 248h22v-45h-24z" />
<glyph unicode="|" horiz-adv-x="716" d="M334 -410v2048h49v-2048h-49z" />
<glyph unicode="}" horiz-adv-x="651" d="M272 905q0 -91 37 -140t125 -58v-50q-88 -9 -125 -58t-37 -140q0 -57 17 -217q14 -121 14 -176q0 -248 -194 -248h-23v45h25q143 0 143 198q0 50 -12 160q-19 168 -19 236q0 205 166 225q-166 20 -166 225q0 68 19 236q12 110 12 160q0 103 -36.5 153.5t-106.5 44.5h-25 v45h23q194 0 194 -248q0 -55 -14 -176q-17 -160 -17 -217z" />
<glyph unicode="~" horiz-adv-x="1185" d="M831 496q-50 0 -104.5 18t-157.5 64q-148 67 -215 67q-47 0 -78.5 -33t-31.5 -100h-45q0 86 42.5 132t112.5 46q50 0 104.5 -18t157.5 -64q148 -67 215 -67q47 0 79 33t32 100h45q0 -86 -43 -132t-113 -46z" />
<glyph unicode="&#xa1;" horiz-adv-x="462" d="M276 1057v-236q-24 -8 -49 0v236q24 8 49 0zM252 627l6 -1086h-53l6 1086h41z" />
<glyph unicode="&#xa2;" d="M866 158l17 -37q-130 -71 -273 -76v-176h-49v176q-179 8 -276 135t-97 375q0 245 96 376t277 150v189h49v-185h17q160 0 262 -45l-17 -43q-93 41 -245 41q-190 0 -289.5 -121.5t-99.5 -359.5q0 -231 88 -348t258 -117q150 0 282 66z" />
<glyph unicode="&#xa3;" d="M252 45h735v-45h-852v39q109 17 184.5 115.5t75.5 226.5q0 117 -35 319h-206v48h198q-17 97 -24 140.5t-13 101t-6 108.5q0 203 107 324.5t276 121.5q90 0 163.5 -34t119.5 -97l-25 -29q-113 113 -258 113q-67 0 -126 -24t-106 -71t-74.5 -127t-27.5 -183 q0 -28 1.5 -56.5t3.5 -49.5t7 -55t8.5 -52.5t11 -63.5t11.5 -67h437v-48h-428q34 -200 34 -313q0 -117 -50 -208.5t-142 -133.5z" />
<glyph unicode="&#xa4;" d="M913 616q0 -146 -88 -247l117 -117l-33 -33l-116 117q-101 -88 -240 -88t-240 88l-116 -117l-33 33l117 117q-88 101 -88 247q0 147 88 248l-117 117l33 33l116 -117q101 88 240 88t240 -88l116 117l33 -33l-117 -117q88 -101 88 -248zM553 293q136 0 223.5 92t87.5 231 t-87.5 231.5t-223.5 92.5t-223.5 -92.5t-87.5 -231.5t87.5 -231t223.5 -92z" />
<glyph unicode="&#xa5;" d="M1049 1516l-453 -795h324v-45h-351l-8 -14v-166h359v-45h-359v-451h-49v451h-338v45h338v170l-4 10h-334v45h309l-426 795h58l420 -795l4 -10l446 805h64z" />
<glyph unicode="&#xa6;" horiz-adv-x="716" d="M334 717v696h49v-696h-49zM334 -328v697h49v-697h-49z" />
<glyph unicode="&#xa7;" horiz-adv-x="1153" d="M766 119q70 -49 101.5 -103t31.5 -125q0 -123 -102.5 -206.5t-251.5 -83.5q-183 0 -303 102l28 29q50 -39 126.5 -62.5t148.5 -23.5q132 0 218.5 71.5t86.5 171.5q0 96 -80 166t-281 162q-148 68 -222 146.5t-74 195.5q0 89 42 153.5t152 149.5q-70 49 -101.5 103 t-31.5 125q0 123 102.5 206.5t251.5 83.5q183 0 303 -102l-28 -29q-50 39 -126.5 62.5t-148.5 23.5q-132 0 -218.5 -71.5t-86.5 -171.5q0 -96 80 -166t281 -162q149 -68 223 -147t74 -195q0 -89 -42.5 -153.5t-152.5 -149.5zM242 559q0 -95 64.5 -164t207.5 -137 q141 -66 217 -115q91 71 135.5 134.5t44.5 144.5q0 95 -64.5 164t-207.5 137q-141 66 -217 115q-91 -71 -135.5 -134.5t-44.5 -144.5z" />
<glyph unicode="&#xa8;" horiz-adv-x="397" d="M82 1251v181q24 10 49 0v-181q-25 -11 -49 0zM266 1251v181q24 10 49 0v-181q-25 -11 -49 0z" />
<glyph unicode="&#xa9;" horiz-adv-x="1880" d="M940 -131q-162 0 -307.5 61.5t-250 167.5t-165.5 254t-61 314t61 314t165.5 253.5t250 167t307.5 61.5t307.5 -61.5t250 -167t165.5 -253.5t61 -314t-61 -314t-165.5 -254t-250 -167.5t-307.5 -61.5zM940 -86q152 0 288 58t234 157.5t155.5 239.5t57.5 297 q0 156 -57.5 295.5t-155.5 239.5t-234 158t-288 58t-288 -58t-234 -158t-155.5 -239.5t-57.5 -295.5q0 -157 57.5 -297t155.5 -239.5t234 -157.5t288 -58zM958 240q-169 0 -265.5 107t-96.5 323q0 205 106.5 320.5t280.5 115.5q123 0 205 -43l-17 -41q-83 39 -188 39 q-151 0 -242.5 -99.5t-91.5 -287.5q0 -196 86 -292.5t228 -96.5q127 0 221 67l24 -37q-113 -75 -250 -75z" />
<glyph unicode="&#xab;" horiz-adv-x="1011" d="M510 180l-330 328l330 330l31 -31l-297 -299l297 -299zM858 180l-330 328l330 330l31 -31l-297 -299l297 -299z" />
<glyph unicode="&#xac;" horiz-adv-x="1228" d="M877 430v287h-672v45h721v-332h-49z" />
<glyph unicode="&#xad;" horiz-adv-x="794" d="M188 573v45h418v-45h-418z" />
<glyph unicode="&#xae;" horiz-adv-x="1880" d="M940 1462q162 0 307.5 -61.5t250 -167t165.5 -253.5t61 -314t-61 -314t-165.5 -254t-250 -167.5t-307.5 -61.5t-307.5 61.5t-250 167.5t-165.5 254t-61 314t61 314t165.5 253.5t250 167t307.5 61.5zM940 -86q152 0 288 58t234 157.5t155.5 239.5t57.5 297 q0 156 -57.5 295.5t-155.5 239.5t-234 158t-288 58t-288 -58t-234 -158t-155.5 -239.5t-57.5 -295.5q0 -157 57.5 -297t155.5 -239.5t234 -157.5t288 -58zM1190 872q0 -176 -158 -233l176 -379h-59l-166 371h-207v-371h-49v834h156q50 0 104 -4q98 -10 150.5 -69.5 t52.5 -148.5zM776 674h203q78 0 118 55.5t40 136.5q0 99 -56 142t-161 43h-144v-377z" />
<glyph unicode="&#xaf;" horiz-adv-x="512" d="M82 1358v45h348v-45h-348z" />
<glyph unicode="&#xb0;" horiz-adv-x="716" d="M338 954q-103 0 -171.5 70t-68.5 174t68.5 174t171.5 70t171.5 -70t68.5 -174t-68.5 -174t-171.5 -70zM338 999q84 0 137 55t53 144t-53 144t-137 55t-137.5 -55t-53.5 -144t53.5 -144t137.5 -55z" />
<glyph unicode="&#xb1;" horiz-adv-x="1187" d="M569 238v395h-385v45h385v387h49v-387h386v-45h-386v-395h-49zM184 0v45h820v-45h-820z" />
<glyph unicode="&#xb4;" horiz-adv-x="407" d="M82 1237l180 319h64l-199 -319h-45z" />
<glyph unicode="&#xb6;" horiz-adv-x="1228" d="M975 1413v-1638h-45v1593h-262v-1593h-45v880h-97q-79 0 -114 2q-151 9 -236.5 116.5t-85.5 260.5t85.5 260.5t236.5 116.5q35 2 114 2h449z" />
<glyph unicode="&#xb7;" horiz-adv-x="376" d="M143 393v236q25 8 50 0v-236q-25 -8 -50 0z" />
<glyph unicode="&#xb8;" horiz-adv-x="503" d="M225 -113q90 -2 143.5 -40t53.5 -109q0 -81 -63.5 -124.5t-153.5 -43.5q-75 0 -123 33l18 37q50 -23 111 -23q69 0 115.5 31.5t46.5 87.5q0 60 -56 88.5t-161 21.5l77 154h50z" />
<glyph unicode="&#xbb;" horiz-adv-x="1011" d="M154 836l329 -328l-329 -330l-31 31l297 299l-297 299zM502 836l329 -328l-329 -330l-31 31l297 299l-297 299z" />
<glyph unicode="&#xbf;" horiz-adv-x="837" d="M553 821q-25 -8 -49 0v236q24 8 49 0v-236zM815 -324l29 -34q-145 -129 -334 -129q-179 0 -286 98.5t-107 263.5q0 160 102.5 275t265.5 163v314h45v-351q-163 -44 -261.5 -148t-98.5 -249q0 -151 94.5 -235t245.5 -84q167 0 305 116z" />
<glyph unicode="&#xc0;" horiz-adv-x="1339" d="M748 1636h-48l-194 279h61zM1184 0l-205 588h-637l-223 -588h-56l586 1516h51l541 -1516h-57zM674 1448l-312 -813h599z" />
<glyph unicode="&#xc1;" horiz-adv-x="1339" d="M846 1915l-195 -279h-47l180 279h62zM1184 0l-205 588h-637l-223 -588h-56l586 1516h51l541 -1516h-57zM674 1448l-312 -813h599z" />
<glyph unicode="&#xc2;" horiz-adv-x="1339" d="M676 1870l-170 -234h-51l200 279h41l201 -279h-51zM1184 0l-205 588h-637l-223 -588h-56l586 1516h51l541 -1516h-57zM674 1448l-312 -813h599z" />
<glyph unicode="&#xc3;" horiz-adv-x="1339" d="M569 1821q-26 0 -40.5 -26.5t-24.5 -98.5l-41 4q7 88 33 127t73 39q44 0 129 -56q54 -35 78 -47t43 -12q27 0 41.5 27t24.5 98l41 -4q-7 -87 -33.5 -126.5t-73.5 -39.5q-46 0 -129 55q-56 36 -79.5 48t-41.5 12zM1184 0l-205 588h-637l-223 -588h-56l586 1516h51 l541 -1516h-57zM674 1448l-312 -813h599z" />
<glyph unicode="&#xc4;" horiz-adv-x="1339" d="M608 1681q-25 -11 -49 0v181q24 10 49 0v-181zM793 1681q-25 -11 -50 0v181q25 11 50 0v-181zM1184 0l-205 588h-637l-223 -588h-56l586 1516h51l541 -1516h-57zM674 1448l-312 -813h599z" />
<glyph unicode="&#xc5;" horiz-adv-x="1339" d="M676 1591q-78 0 -134.5 52.5t-56.5 125.5t56.5 126t134.5 53t134 -53t56 -126t-56 -125.5t-134 -52.5zM676 1905q-60 0 -102 -39.5t-42 -96.5t42 -96t102 -39t101.5 39t41.5 96t-41.5 96.5t-101.5 39.5zM1184 0l-205 588h-637l-223 -588h-56l586 1516h51l541 -1516h-57z M674 1448l-312 -813h599z" />
<glyph unicode="&#xc6;" horiz-adv-x="1845" d="M1028 47h709l-11 -47h-747v588h-571l-379 -588h-58l981 1516h66h711l-11 -48h-690v-671h647l-10 -47h-637v-703zM438 635h541v833h-4z" />
<glyph unicode="&#xc7;" horiz-adv-x="1275" d="M733 -29h-8l-43 -84q90 -2 143.5 -40t53.5 -109q0 -81 -63.5 -124.5t-153.5 -43.5q-75 0 -123 33l18 37q50 -23 111 -23q69 0 115 31.5t46 87.5q0 60 -56 88.5t-161 21.5l64 127q-276 18 -427 207.5t-151 564.5q0 364 199 581.5t524 217.5q206 0 355 -76l-17 -36 q-143 65 -338 65q-144 0 -267 -51t-212 -145.5t-139.5 -237.5t-50.5 -318q0 -189 42 -330t120 -227t182 -128t235 -42q120 0 217 30t195 95l22 -37q-191 -135 -432 -135z" />
<glyph unicode="&#xc8;" horiz-adv-x="1071" d="M666 1636h-48l-194 279h61zM205 0v1516h749l-10 -48h-690v-671h647l-10 -47h-637v-703h709l-11 -47h-747z" />
<glyph unicode="&#xc9;" horiz-adv-x="1071" d="M522 1636l180 279h62l-195 -279h-47zM205 0v1516h749l-10 -48h-690v-671h647l-10 -47h-637v-703h709l-11 -47h-747z" />
<glyph unicode="&#xca;" horiz-adv-x="1071" d="M594 1870l-170 -234h-51l200 279h41l201 -279h-51zM254 47h709l-11 -47h-747v1516h749l-10 -48h-690v-671h647l-10 -47h-637v-703z" />
<glyph unicode="&#xcb;" horiz-adv-x="1071" d="M477 1681v181q24 10 49 0v-181q-25 -11 -49 0zM662 1681v181q25 10 49 0v-181q-24 -11 -49 0zM205 0v1516h749l-10 -48h-690v-671h647l-10 -47h-637v-703h709l-11 -47h-747z" />
<glyph unicode="&#xcc;" horiz-adv-x="458" d="M301 1636h-47l-195 279h62zM205 0v1516h49v-1516h-49z" />
<glyph unicode="&#xcd;" horiz-adv-x="458" d="M158 1636l180 279h61l-194 -279h-47zM205 0v1516h49v-1516h-49z" />
<glyph unicode="&#xce;" horiz-adv-x="458" d="M250 1915l201 -279h-52l-170 234l-170 -234h-51l201 279h41zM205 0v1516h49v-1516h-49z" />
<glyph unicode="&#xcf;" horiz-adv-x="458" d="M113 1681v181q24 10 49 0v-181q-25 -11 -49 0zM297 1681v181q24 10 49 0v-181q-25 -11 -49 0zM205 0v1516h49v-1516h-49z" />
<glyph unicode="&#xd0;" horiz-adv-x="1415" d="M723 1505q131 -18 236.5 -68t187 -134t126 -212.5t44.5 -293.5q0 -133 -31 -249.5t-85 -203.5t-128 -154.5t-158.5 -109t-177.5 -60.5q-109 -20 -266 -20h-266v715h-88v45h88v756h295q136 0 223 -11zM541 47q157 0 290 51t229 145.5t150 236.5t54 315q0 337 -184 505 t-513 168h-313v-708h293v-45h-293v-668h287z" />
<glyph unicode="&#xd1;" horiz-adv-x="1495" d="M641 1821q-27 0 -41.5 -27t-24.5 -98l-40 4q7 88 33 127t73 39q44 0 129 -56q54 -35 78 -47t43 -12q26 0 40.5 26.5t24.5 98.5l41 -4q-7 -88 -33 -127t-73 -39q-46 0 -129 55q-56 36 -79.5 48t-41.5 12zM1243 1516h47v-1516h-41l-997 1417v-1417h-47v1516h39l999 -1416 v1416z" />
<glyph unicode="&#xd2;" horiz-adv-x="1523" d="M834 1636h-48l-194 279h61zM762 1544q138 0 258 -51.5t210.5 -148.5t142.5 -248t52 -338t-52 -338t-142.5 -248t-210.5 -149t-258 -52t-258 52t-211 149t-143 248t-52 338q0 150 34 278t94.5 220.5t144 158t182.5 97.5t209 32zM762 18q128 0 239 50t193.5 142t130 233.5 t47.5 314.5t-47.5 314t-130 233.5t-193.5 142t-239 49.5t-239 -49.5t-193.5 -142t-130 -233.5t-47.5 -314t47.5 -314.5t130 -233.5t193.5 -142t239 -50z" />
<glyph unicode="&#xd3;" horiz-adv-x="1523" d="M932 1915l-195 -279h-47l180 279h62zM762 1544q138 0 258 -51.5t210.5 -148.5t142.5 -248t52 -338t-52 -338t-142.5 -248t-210.5 -149t-258 -52t-258 52t-211 149t-143 248t-52 338q0 150 34 278t94.5 220.5t144 158t182.5 97.5t209 32zM762 18q128 0 239 50t193.5 142 t130 233.5t47.5 314.5t-47.5 314t-130 233.5t-193.5 142t-239 49.5t-239 -49.5t-193.5 -142t-130 -233.5t-47.5 -314t47.5 -314.5t130 -233.5t193.5 -142t239 -50z" />
<glyph unicode="&#xd4;" horiz-adv-x="1523" d="M762 1870l-170 -234h-51l200 279h41l201 -279h-51zM762 1544q138 0 258 -51.5t210.5 -148.5t142.5 -248t52 -338t-52 -338t-142.5 -248t-210.5 -149t-258 -52t-258 52t-211 149t-143 248t-52 338q0 150 34 278t94.5 220.5t144 158t182.5 97.5t209 32zM762 18 q128 0 239 50t193.5 142t130 233.5t47.5 314.5t-47.5 314t-130 233.5t-193.5 142t-239 49.5t-239 -49.5t-193.5 -142t-130 -233.5t-47.5 -314t47.5 -314.5t130 -233.5t193.5 -142t239 -50z" />
<glyph unicode="&#xd5;" horiz-adv-x="1523" d="M655 1821q-26 0 -40.5 -26.5t-24.5 -98.5l-41 4q7 88 33 127t73 39q44 0 129 -56q54 -35 78 -47t43 -12q27 0 41.5 27t24.5 98l41 -4q-7 -87 -33.5 -126.5t-73.5 -39.5q-46 0 -129 55q-56 36 -79.5 48t-41.5 12zM762 1544q138 0 258 -51.5t210.5 -148.5t142.5 -248 t52 -338t-52 -338t-142.5 -248t-210.5 -149t-258 -52t-258 52t-211 149t-143 248t-52 338q0 150 34 278t94.5 220.5t144 158t182.5 97.5t209 32zM762 18q128 0 239 50t193.5 142t130 233.5t47.5 314.5t-47.5 314t-130 233.5t-193.5 142t-239 49.5t-239 -49.5t-193.5 -142 t-130 -233.5t-47.5 -314t47.5 -314.5t130 -233.5t193.5 -142t239 -50z" />
<glyph unicode="&#xd6;" horiz-adv-x="1523" d="M694 1681q-25 -11 -49 0v181q24 10 49 0v-181zM879 1681q-25 -11 -50 0v181q25 11 50 0v-181zM762 1544q138 0 258 -51.5t210.5 -148.5t142.5 -248t52 -338t-52 -338t-142.5 -248t-210.5 -149t-258 -52t-258 52t-211 149t-143 248t-52 338q0 150 34 278t94.5 220.5 t144 158t182.5 97.5t209 32zM762 18q128 0 239 50t193.5 142t130 233.5t47.5 314.5t-47.5 314t-130 233.5t-193.5 142t-239 49.5t-239 -49.5t-193.5 -142t-130 -233.5t-47.5 -314t47.5 -314.5t130 -233.5t193.5 -142t239 -50z" />
<glyph unicode="&#xd7;" horiz-adv-x="1138" d="M911 918l-307 -308l307 -307l-34 -35l-308 307l-307 -307l-35 35l308 307l-308 308l35 34l307 -307l308 307z" />
<glyph unicode="&#xd8;" horiz-adv-x="1523" d="M1214 1360q100 -102 155.5 -254.5t55.5 -347.5q0 -187 -52 -338t-142.5 -248t-210.5 -149t-258 -52q-246 0 -420 154l-117 -166l-47 21l127 180q-207 217 -207 598q0 150 34 278t94.5 220.5t144 158t182.5 97.5t209 32q241 0 416 -149l112 161l47 -20zM152 758 q0 -352 184 -555l811 1151q-158 143 -385 143q-128 0 -239 -49.5t-193.5 -142t-130 -233.5t-47.5 -314zM762 18q128 0 239 50t193.5 142t130 233.5t47.5 314.5q0 358 -188 559l-811 -1151q160 -148 389 -148z" />
<glyph unicode="&#xd9;" horiz-adv-x="1271" d="M709 1636h-47l-195 279h61zM635 -29q-405 0 -445 435q-6 68 -6 217v893h49v-1014q0 -251 107.5 -367.5t296.5 -116.5q401 0 401 484v1014h49v-893q0 -149 -6 -217q-40 -435 -446 -435z" />
<glyph unicode="&#xda;" horiz-adv-x="1271" d="M565 1636l180 279h62l-195 -279h-47zM635 -29q-405 0 -445 435q-6 68 -6 217v893h49v-1014q0 -251 107.5 -367.5t296.5 -116.5q401 0 401 484v1014h49v-893q0 -149 -6 -217q-40 -435 -446 -435z" />
<glyph unicode="&#xdb;" horiz-adv-x="1271" d="M637 1870l-170 -234h-51l200 279h41l201 -279h-51zM1038 1516h49v-893q0 -149 -6 -217q-40 -435 -446 -435q-405 0 -445 435q-6 68 -6 217v893h49v-1014q0 -251 107.5 -367.5t296.5 -116.5q401 0 401 484v1014z" />
<glyph unicode="&#xdc;" horiz-adv-x="1271" d="M520 1681v181q24 10 49 0v-181q-25 -11 -49 0zM705 1681v181q25 10 49 0v-181q-24 -11 -49 0zM635 -29q-405 0 -445 435q-6 68 -6 217v893h49v-1014q0 -251 107.5 -367.5t296.5 -116.5q401 0 401 484v1014h49v-893q0 -149 -6 -217q-40 -435 -446 -435z" />
<glyph unicode="&#xdd;" horiz-adv-x="1097" d="M721 1915l-195 -279h-47l180 279h62zM1069 1516l-498 -861v-655h-49v655l-491 861h55l463 -807l463 807h57z" />
<glyph unicode="&#xde;" horiz-adv-x="1097" d="M612 1225q193 -21 293.5 -132t100.5 -278q0 -168 -128.5 -286.5t-328.5 -127.5q-74 -4 -207 -4h-88v-397h-49v1516h49v-287h131q161 0 227 -4zM500 444q208 0 330 106t122 265q0 163 -104.5 265t-317.5 102h-276v-738h246z" />
<glyph unicode="&#xdf;" horiz-adv-x="1148" d="M844 676q98 -93 140 -181t42 -190q0 -139 -98.5 -236.5t-261.5 -97.5q-133 0 -215 66l24 37q86 -56 195 -56q131 0 219 76.5t88 208.5q0 96 -38 172t-132 172q-85 87 -114 134.5t-29 99.5q0 74 49.5 120.5t142.5 53.5q23 73 23 147q0 150 -75 233t-229 83q-62 0 -118 -26 t-102 -77.5t-73.5 -139.5t-27.5 -202v-1073h-49v915q0 183 6 265q14 166 116 275.5t261 109.5q74 0 133.5 -20.5t97.5 -55t63 -81.5t35.5 -97t10.5 -105q0 -107 -41 -190q-93 -10 -133.5 -41t-40.5 -88q0 -49 28.5 -95.5t102.5 -115.5z" />
<glyph unicode="&#xe0;" horiz-adv-x="999" d="M532 1237h-45l-198 319h63zM838 0l-52 -6l-22 100q-69 -56 -164 -89.5t-180 -33.5q-138 0 -216.5 75.5t-78.5 232.5q0 153 105.5 232t306.5 79q122 0 225 -21v172q0 150 -66 223.5t-213 73.5q-137 0 -262 -71l-20 39q130 79 293 79q133 0 218 -69t95 -205q4 -45 4 -149 v-478q0 -74 27 -184zM176 281q0 -129 62.5 -196t185.5 -67q82 0 174 32t164 95v377q-103 21 -227 21q-359 0 -359 -262z" />
<glyph unicode="&#xe1;" horiz-adv-x="999" d="M694 1556l-198 -319h-45l180 319h63zM838 0l-52 -6l-22 100q-69 -56 -164 -89.5t-180 -33.5q-138 0 -216.5 75.5t-78.5 232.5q0 153 105.5 232t306.5 79q122 0 225 -21v172q0 150 -66 223.5t-213 73.5q-137 0 -262 -71l-20 39q130 79 293 79q133 0 218 -69t95 -205 q4 -45 4 -149v-478q0 -74 27 -184zM176 281q0 -129 62.5 -196t185.5 -67q82 0 174 32t164 95v377q-103 21 -227 21q-359 0 -359 -262z" />
<glyph unicode="&#xe2;" horiz-adv-x="999" d="M502 1507l-172 -270h-49l200 319h41l201 -319h-51zM838 0l-52 -6l-22 100q-69 -56 -164 -89.5t-180 -33.5q-138 0 -216.5 75.5t-78.5 232.5q0 153 105.5 232t306.5 79q122 0 225 -21v172q0 150 -66 223.5t-213 73.5q-137 0 -262 -71l-20 39q130 79 293 79q133 0 218 -69 t95 -205q4 -45 4 -149v-478q0 -74 27 -184zM176 281q0 -129 62.5 -196t185.5 -67q82 0 174 32t164 95v377q-103 21 -227 21q-359 0 -359 -262z" />
<glyph unicode="&#xe3;" horiz-adv-x="999" d="M377 1432q-27 0 -41.5 -27t-24.5 -98l-41 4q7 87 33.5 126.5t73.5 39.5q44 0 129 -56q54 -35 78 -47t43 -12q26 0 40.5 26.5t24.5 98.5l41 -4q-7 -88 -33 -127t-73 -39q-46 0 -129 55q-56 36 -79.5 48t-41.5 12zM838 0l-52 -6l-22 100q-69 -56 -164 -89.5t-180 -33.5 q-138 0 -216.5 75.5t-78.5 232.5q0 153 105.5 232t306.5 79q122 0 225 -21v172q0 150 -66 223.5t-213 73.5q-137 0 -262 -71l-20 39q130 79 293 79q133 0 218 -69t95 -205q4 -45 4 -149v-478q0 -74 27 -184zM176 281q0 -129 62.5 -196t185.5 -67q82 0 174 32t164 95v377 q-103 21 -227 21q-359 0 -359 -262z" />
<glyph unicode="&#xe4;" horiz-adv-x="999" d="M434 1251q-24 -11 -49 0v181q25 10 49 0v-181zM618 1251q-24 -11 -49 0v181q25 10 49 0v-181zM838 0l-52 -6l-22 100q-69 -56 -164 -89.5t-180 -33.5q-138 0 -216.5 75.5t-78.5 232.5q0 153 105.5 232t306.5 79q122 0 225 -21v172q0 150 -66 223.5t-213 73.5 q-137 0 -262 -71l-20 39q130 79 293 79q133 0 218 -69t95 -205q4 -45 4 -149v-478q0 -74 27 -184zM176 281q0 -129 62.5 -196t185.5 -67q82 0 174 32t164 95v377q-103 21 -227 21q-359 0 -359 -262z" />
<glyph unicode="&#xe5;" horiz-adv-x="999" d="M502 1188q-75 0 -130 53.5t-55 130.5t55 130.5t130 53.5t129.5 -53.5t54.5 -130.5t-54.5 -130.5t-129.5 -53.5zM502 1513q-56 0 -96.5 -40.5t-40.5 -100.5t40.5 -100.5t96.5 -40.5t96.5 40.5t40.5 100.5t-40.5 100.5t-96.5 40.5zM838 0l-52 -6l-22 100 q-69 -56 -164 -89.5t-180 -33.5q-138 0 -216.5 75.5t-78.5 232.5q0 153 105.5 232t306.5 79q122 0 225 -21v172q0 150 -66 223.5t-213 73.5q-137 0 -262 -71l-20 39q130 79 293 79q133 0 218 -69t95 -205q4 -45 4 -149v-478q0 -74 27 -184zM176 281q0 -129 62.5 -196 t185.5 -67q82 0 174 32t164 95v377q-103 21 -227 21q-359 0 -359 -262z" />
<glyph unicode="&#xe6;" horiz-adv-x="1681" d="M1202 18q165 0 303 66l15 -41q-153 -72 -322 -72q-291 0 -371 271q-35 -73 -85 -128t-103 -85t-101.5 -44t-91.5 -14q-151 0 -236 71t-85 218q0 89 32 154t91 103t133.5 55.5t167.5 17.5q142 0 246 -19q1 9 2 27.5t2 26.5v61q0 202 -62 279t-221 77q-86 0 -155.5 -20.5 t-143.5 -63.5l-20 39q147 93 329 93q139 0 221.5 -65.5t92.5 -197.5q96 258 362 258q164 0 248 -94.5t98 -288.5q2 -68 2 -163h-708q0 -147 25 -250t73.5 -161.5t112 -84t149.5 -25.5zM1200 1038q-165 0 -257 -114.5t-101 -339.5h659q1 104 -11 182t-36 130t-62 83.5 t-84.5 45t-107.5 13.5zM449 18q107 0 204 71.5t160 213.5q-18 94 -18 219v8q-107 13 -248 13q-371 0 -371 -281q0 -118 69 -181t204 -63z" />
<glyph unicode="&#xe7;" horiz-adv-x="925" d="M487 -113q90 -2 143.5 -40t53.5 -109q0 -81 -63.5 -124.5t-153.5 -43.5q-75 0 -123 33l18 37q50 -23 111 -23q69 0 115.5 31.5t46.5 87.5q0 60 -56 88.5t-161 21.5l63 125q-177 9 -271.5 142.5t-94.5 400.5q0 292 120 431.5t353 139.5q122 0 231 -38l-14 -41 q-106 32 -227 32q-204 0 -309 -127t-105 -395q0 -247 90 -372.5t260 -125.5q165 0 303 66l14 -41q-147 -69 -301 -72z" />
<glyph unicode="&#xe8;" horiz-adv-x="1001" d="M537 1237h-45l-199 319h63zM522 18q165 0 303 66l15 -41q-153 -72 -322 -72q-206 0 -304.5 132.5t-98.5 418.5t109 424.5t298 138.5q164 0 248 -94.5t98 -288.5q2 -68 2 -163h-708q0 -147 25 -250t73.5 -161.5t112 -84t149.5 -25.5zM520 1038q-165 0 -257 -114.5 t-101 -339.5h659q1 104 -11 182t-36 130t-62 83.5t-84.5 45t-107.5 13.5z" />
<glyph unicode="&#xe9;" horiz-adv-x="1001" d="M698 1556l-198 -319h-45l180 319h63zM522 18q165 0 303 66l15 -41q-153 -72 -322 -72q-206 0 -304.5 132.5t-98.5 418.5t109 424.5t298 138.5q164 0 248 -94.5t98 -288.5q2 -68 2 -163h-708q0 -147 25 -250t73.5 -161.5t112 -84t149.5 -25.5zM520 1038 q-165 0 -257 -114.5t-101 -339.5h659q1 104 -11 182t-36 130t-62 83.5t-84.5 45t-107.5 13.5z" />
<glyph unicode="&#xea;" horiz-adv-x="1001" d="M506 1507l-172 -270h-49l200 319h41l201 -319h-51zM522 18q165 0 303 66l15 -41q-153 -72 -322 -72q-206 0 -304.5 132.5t-98.5 418.5t109 424.5t298 138.5q164 0 248 -94.5t98 -288.5q2 -68 2 -163h-708q0 -147 25 -250t73.5 -161.5t112 -84t149.5 -25.5zM520 1038 q-165 0 -257 -114.5t-101 -339.5h659q1 104 -11 182t-36 130t-62 83.5t-84.5 45t-107.5 13.5z" />
<glyph unicode="&#xeb;" horiz-adv-x="1001" d="M438 1251q-24 -11 -49 0v181q25 10 49 0v-181zM623 1251q-25 -11 -50 0v181q25 11 50 0v-181zM522 18q165 0 303 66l15 -41q-153 -72 -322 -72q-206 0 -304.5 132.5t-98.5 418.5t109 424.5t298 138.5q164 0 248 -94.5t98 -288.5q2 -68 2 -163h-708q0 -147 25 -250 t73.5 -161.5t112 -84t149.5 -25.5zM520 1038q-165 0 -257 -114.5t-101 -339.5h659q1 104 -11 182t-36 130t-62 83.5t-84.5 45t-107.5 13.5z" />
<glyph unicode="&#xec;" horiz-adv-x="458" d="M215 1237l-199 319h64l180 -319h-45zM205 0v1051l49 12v-1063h-49z" />
<glyph unicode="&#xed;" horiz-adv-x="458" d="M178 1237l180 319h64l-199 -319h-45zM205 0v1051l49 12v-1063h-49z" />
<glyph unicode="&#xee;" horiz-adv-x="458" d="M250 1556l201 -319h-52l-170 270l-172 -270h-49l201 319h41zM205 0v1051l49 12v-1063h-49z" />
<glyph unicode="&#xef;" horiz-adv-x="458" d="M113 1251v181q24 10 49 0v-181q-25 -11 -49 0zM297 1251v181q24 10 49 0v-181q-25 -11 -49 0zM205 0v1051l49 12v-1063h-49z" />
<glyph unicode="&#xf0;" horiz-adv-x="1062" d="M705 1350q239 -258 239 -678q0 -154 -21.5 -274t-59 -199.5t-92 -131.5t-117 -74t-138.5 -22q-190 0 -295.5 137.5t-105.5 385.5q0 270 140 424.5t380 154.5q122 0 207 -45q-57 168 -189 303l-188 -67v43l156 57q-100 90 -230 164l41 28q147 -81 240 -174l159 58v-43z M516 18q379 0 379 650q0 183 -39 315q-105 43 -217 43q-76 0 -143.5 -17.5t-129 -57.5t-106 -99.5t-70.5 -149.5t-26 -202q0 -227 94 -354.5t258 -127.5z" />
<glyph unicode="&#xf1;" horiz-adv-x="1110" d="M416 1432q-27 0 -41.5 -27t-24.5 -98l-41 4q7 87 33.5 126.5t73.5 39.5q44 0 129 -56q54 -35 78 -47t43 -12q26 0 40.5 26.5t24.5 98.5l41 -4q-7 -88 -33 -127t-73 -39q-46 0 -129 55q-56 36 -79.5 48t-41.5 12zM928 813q4 -47 4 -156v-657h-49v748q0 155 -73.5 222.5 t-238.5 67.5q-138 0 -317 -86v-952h-49v1051l49 12v-59q169 81 332 81q316 0 342 -272z" />
<glyph unicode="&#xf2;" horiz-adv-x="1134" d="M598 1237h-45l-199 319h64zM567 1083q213 0 333 -144t120 -411t-120 -411t-333 -144t-332.5 144t-119.5 411t119.5 411t332.5 144zM567 20q183 0 292.5 127.5t109.5 380.5t-109.5 380.5t-292.5 127.5t-292 -127.5t-109 -380.5t109 -380.5t292 -127.5z" />
<glyph unicode="&#xf3;" horiz-adv-x="1134" d="M760 1556l-199 -319h-45l180 319h64zM567 1083q213 0 333 -144t120 -411t-120 -411t-333 -144t-332.5 144t-119.5 411t119.5 411t332.5 144zM567 20q183 0 292.5 127.5t109.5 380.5t-109.5 380.5t-292.5 127.5t-292 -127.5t-109 -380.5t109 -380.5t292 -127.5z" />
<glyph unicode="&#xf4;" horiz-adv-x="1134" d="M567 1507l-172 -270h-49l201 319h41l200 -319h-51zM567 1083q213 0 333 -144t120 -411t-120 -411t-333 -144t-332.5 144t-119.5 411t119.5 411t332.5 144zM567 20q183 0 292.5 127.5t109.5 380.5t-109.5 380.5t-292.5 127.5t-292 -127.5t-109 -380.5t109 -380.5 t292 -127.5z" />
<glyph unicode="&#xf5;" horiz-adv-x="1134" d="M442 1432q-26 0 -40.5 -26.5t-24.5 -98.5l-41 4q7 88 33 127t73 39q44 0 129 -56q54 -35 78 -47t43 -12q27 0 41.5 27t24.5 98l41 -4q-7 -87 -33.5 -126.5t-73.5 -39.5q-46 0 -129 55q-56 36 -79.5 48t-41.5 12zM567 1083q213 0 333 -144t120 -411t-120 -411t-333 -144 t-332.5 144t-119.5 411t119.5 411t332.5 144zM567 20q183 0 292.5 127.5t109.5 380.5t-109.5 380.5t-292.5 127.5t-292 -127.5t-109 -380.5t109 -380.5t292 -127.5z" />
<glyph unicode="&#xf6;" horiz-adv-x="1134" d="M500 1251q-25 -11 -49 0v181q24 10 49 0v-181zM684 1251q-24 -11 -49 0v181q25 10 49 0v-181zM567 1083q213 0 333 -144t120 -411t-120 -411t-333 -144t-332.5 144t-119.5 411t119.5 411t332.5 144zM567 20q183 0 292.5 127.5t109.5 380.5t-109.5 380.5t-292.5 127.5 t-292 -127.5t-109 -380.5t109 -380.5t292 -127.5z" />
<glyph unicode="&#xf7;" horiz-adv-x="1228" d="M569 803v235q9 4 24.5 4t24.5 -4v-235q-9 -5 -24.5 -5t-24.5 5zM164 590v45h860v-45h-860zM569 186v236q9 4 24.5 4t24.5 -4v-236q-9 -4 -24.5 -4t-24.5 4z" />
<glyph unicode="&#xf8;" horiz-adv-x="1159" d="M870 971q150 -144 150 -443q0 -267 -120 -411t-333 -144q-180 0 -295 103l-77 -117l-43 21l88 131q-125 147 -125 417q0 267 119.5 411t332.5 144q158 0 269 -82l63 97l43 -21zM166 528q0 -239 102 -372l539 805q-97 75 -240 75q-183 0 -292 -127.5t-109 -380.5zM567 20 q183 0 292.5 127.5t109.5 380.5q0 270 -127 400l-541 -809q105 -99 266 -99z" />
<glyph unicode="&#xf9;" horiz-adv-x="1097" d="M573 1237h-45l-198 319h63zM844 1051l49 12v-1063h-49v72q-152 -101 -332 -101q-316 0 -342 273q-4 47 -4 155v652l49 12v-754q0 -155 73 -223t238 -68q150 0 318 101v932z" />
<glyph unicode="&#xfa;" horiz-adv-x="1097" d="M735 1556l-198 -319h-45l180 319h63zM844 1051l49 12v-1063h-49v72q-152 -101 -332 -101q-316 0 -342 273q-4 47 -4 155v652l49 12v-754q0 -155 73 -223t238 -68q150 0 318 101v932z" />
<glyph unicode="&#xfb;" horiz-adv-x="1097" d="M543 1507l-172 -270h-49l200 319h41l201 -319h-51zM844 1051l49 12v-1063h-49v72q-152 -101 -332 -101q-316 0 -342 273q-4 47 -4 155v652l49 12v-754q0 -155 73 -223t238 -68q150 0 318 101v932z" />
<glyph unicode="&#xfc;" horiz-adv-x="1097" d="M475 1251q-25 -11 -49 0v181q24 10 49 0v-181zM659 1251q-25 -11 -49 0v181q24 10 49 0v-181zM844 1051l49 12v-1063h-49v72q-152 -101 -332 -101q-316 0 -342 273q-4 47 -4 155v652l49 12v-754q0 -155 73 -223t238 -68q150 0 318 101v932z" />
<glyph unicode="&#xfd;" horiz-adv-x="997" d="M702 1556l-198 -319h-45l180 319h63zM885 1057h53l-360 -901q-116 -291 -227 -427.5t-255 -177.5l-30 41q123 30 224 139.5t173 276.5l-373 1049h55l347 -996z" />
<glyph unicode="&#xfe;" horiz-adv-x="1101" d="M539 1085q111 0 190.5 -26.5t139 -88t89 -168.5t29.5 -263q0 -267 -112 -417.5t-340 -150.5q-166 0 -281 37v-420l-49 -12v1446v522l49 12v-516q136 45 285 45zM535 18q69 0 126.5 15.5t109.5 53t88.5 96t57.5 149.5t21 209q0 138 -25 234t-76.5 154t-123.5 83.5 t-172 25.5q-156 0 -287 -45v-936q127 -39 281 -39z" />
<glyph unicode="&#xff;" horiz-adv-x="997" d="M442 1251q-25 -11 -49 0v181q24 10 49 0v-181zM627 1251q-25 -11 -49 0v181q25 10 49 0v-181zM885 1057h53l-360 -901q-116 -291 -227 -427.5t-255 -177.5l-30 41q123 30 224 139.5t173 276.5l-373 1049h55l347 -996z" />
<glyph unicode="&#x152;" horiz-adv-x="2058" d="M1241 47h709l-11 -47h-747q-59 0 -210 -14.5t-220 -14.5q-138 0 -258 52t-211 149t-143 248t-52 338q0 150 34 278t94.5 220.5t144 158t182.5 97.5t209 32q69 0 220 -14t210 -14h750l-11 -48h-690v-671h647l-10 -47h-637v-703zM762 18q81 0 221.5 13.5t208.5 13.5v1425 q-80 0 -223 13.5t-207 13.5q-128 0 -239 -49.5t-193.5 -142t-130 -233.5t-47.5 -314t47.5 -314.5t130 -233.5t193.5 -142t239 -50z" />
<glyph unicode="&#x153;" horiz-adv-x="1845" d="M1366 18q165 0 303 66l14 -41q-153 -72 -321 -72q-163 0 -258 81t-127 253q-19 -70 -50 -127t-79 -104.5t-119.5 -74t-161.5 -26.5q-213 0 -332.5 144t-119.5 411t119.5 411t332.5 144q91 0 163.5 -27.5t121 -76.5t79 -107.5t48.5 -130.5q39 175 139 259.5t248 84.5 q164 0 248 -94.5t98 -288.5q2 -68 2 -163h-708q0 -147 25 -250t73.5 -161.5t112 -84t149.5 -25.5zM1364 1038q-165 0 -257 -114.5t-101 -339.5h659q1 104 -11 182t-36 130t-62 83.5t-84.5 45t-107.5 13.5zM567 20q173 0 276.5 120.5t114.5 334.5v47v51q-9 218 -112.5 340.5 t-278.5 122.5q-183 0 -292 -127.5t-109 -380.5t109 -380.5t292 -127.5z" />
<glyph unicode="&#x178;" horiz-adv-x="1097" d="M483 1681q-25 -11 -49 0v181q24 10 49 0v-181zM668 1681q-25 -11 -50 0v181q25 11 50 0v-181zM1069 1516l-498 -861v-655h-49v655l-491 861h55l463 -807l463 807h57z" />
<glyph unicode="&#x2c6;" horiz-adv-x="606" d="M524 1237h-51l-170 270l-172 -270h-49l201 319h41z" />
<glyph unicode="&#x2dc;" horiz-adv-x="626" d="M545 1483q-7 -87 -33.5 -126.5t-73.5 -39.5q-46 0 -129 55q-56 36 -79.5 48t-41.5 12q-26 0 -40.5 -26.5t-24.5 -98.5l-41 4q7 88 33 127t73 39q44 0 129 -56q54 -35 78 -47t43 -12q27 0 41.5 27t24.5 98z" />
<glyph unicode="&#x2000;" horiz-adv-x="974" />
<glyph unicode="&#x2001;" horiz-adv-x="1948" />
<glyph unicode="&#x2002;" horiz-adv-x="974" />
<glyph unicode="&#x2003;" horiz-adv-x="1948" />
<glyph unicode="&#x2004;" horiz-adv-x="649" />
<glyph unicode="&#x2005;" horiz-adv-x="487" />
<glyph unicode="&#x2006;" horiz-adv-x="324" />
<glyph unicode="&#x2007;" horiz-adv-x="324" />
<glyph unicode="&#x2008;" horiz-adv-x="243" />
<glyph unicode="&#x2009;" horiz-adv-x="389" />
<glyph unicode="&#x200a;" horiz-adv-x="108" />
<glyph unicode="&#x2010;" horiz-adv-x="794" d="M188 573v45h418v-45h-418z" />
<glyph unicode="&#x2011;" horiz-adv-x="794" d="M188 573v45h418v-45h-418z" />
<glyph unicode="&#x2012;" horiz-adv-x="794" d="M188 573v45h418v-45h-418z" />
<glyph unicode="&#x2013;" horiz-adv-x="1024" d="M188 573v45h648v-45h-648z" />
<glyph unicode="&#x2014;" horiz-adv-x="2048" d="M188 573v45h1672v-45h-1672z" />
<glyph unicode="&#x2018;" horiz-adv-x="364" d="M340 1516q-96 -165 -128 -288.5t-7 -266.5q-23 -19 -49 -19q-23 158 7.5 283t129.5 291h47z" />
<glyph unicode="&#x2019;" horiz-adv-x="364" d="M25 971q96 165 128 288.5t7 266.5q22 18 49 18q23 -158 -7.5 -282.5t-129.5 -290.5h-47z" />
<glyph unicode="&#x201a;" horiz-adv-x="319" d="M25 -338q96 165 128 288.5t7 266.5q23 19 49 19q23 -158 -7.5 -283t-129.5 -291h-47z" />
<glyph unicode="&#x201c;" horiz-adv-x="569" d="M340 1516q-96 -165 -128 -288.5t-7 -266.5q-23 -19 -49 -19q-23 158 7.5 283t129.5 291h47zM545 1516q-96 -165 -128 -288.5t-7 -266.5q-23 -19 -50 -19q-23 158 7.5 283t130.5 291h47z" />
<glyph unicode="&#x201d;" horiz-adv-x="569" d="M25 971q96 165 128 288.5t7 266.5q22 18 49 18q23 -158 -7.5 -282.5t-129.5 -290.5h-47zM229 971q97 166 129 289.5t7 265.5q22 18 49 18q23 -158 -7.5 -282t-130.5 -291h-47z" />
<glyph unicode="&#x201e;" horiz-adv-x="524" d="M25 -338q96 165 128 288.5t7 266.5q23 19 49 19q23 -158 -7.5 -283t-129.5 -291h-47zM229 -338q97 166 129 289.5t7 265.5q23 19 49 19q23 -158 -7.5 -283t-130.5 -291h-47z" />
<glyph unicode="&#x2022;" horiz-adv-x="438" d="M184 446v359q35 9 70 0v-359q-35 -9 -70 0z" />
<glyph unicode="&#x2026;" horiz-adv-x="1110" d="M102 0v236q25 8 50 0v-236q-25 -8 -50 0zM492 0v236q24 8 49 0v-236q-25 -8 -49 0zM881 0v236q25 8 49 0v-236q-24 -8 -49 0z" />
<glyph unicode="&#x202f;" horiz-adv-x="389" />
<glyph unicode="&#x2039;" horiz-adv-x="663" d="M510 180l-330 328l330 330l31 -31l-297 -299l297 -299z" />
<glyph unicode="&#x203a;" horiz-adv-x="663" d="M154 836l329 -328l-329 -330l-31 31l297 299l-297 299z" />
<glyph unicode="&#x205f;" horiz-adv-x="487" />
<glyph unicode="&#x20ac;" d="M688 1499q-183 0 -296.5 -148.5t-139.5 -426.5h555l-12 -45h-547q-4 -78 -4 -123q0 -80 2 -117h522l-8 -47h-510q46 -578 432 -578q168 0 307 88l-6 -51q-134 -82 -311 -82q-202 0 -323.5 153.5t-147.5 469.5h-174l10 47h160q-2 37 -2 117q0 45 4 123h-136l11 45h129 q29 303 158 461.5t331 158.5q105 0 190.5 -37t143.5 -98l-31 -39q-119 129 -307 129z" />
<glyph unicode="&#x2122;" horiz-adv-x="1222" d="M49 506v43h443l-9 -43h-190v-506h-49v506h-195zM1155 0h-47l-45 489l-201 -473h-41l-182 461l-51 -477h-45l59 549h55l187 -477l200 477h60z" />
<glyph unicode="&#x25fc;" horiz-adv-x="1054" d="M0 1055h1055v-1055h-1055v1055z" />
</font>
</defs>
</svg>
