<?xml version="1.0" standalone="no"?>
<!DOCTYPE svg PUBLIC "-//W3C//DTD SVG 1.1//EN" "http://www.w3.org/Graphics/SVG/1.1/DTD/svg11.dtd" >
<svg xmlns="http://www.w3.org/2000/svg" xmlns:xlink="http://www.w3.org/1999/xlink" version="1.1">
<metadata></metadata>
<defs>
<font id="route_159light" horiz-adv-x="1146" >
<font-face units-per-em="2048" ascent="1577" descent="-471" />
<missing-glyph horiz-adv-x="458" />
<glyph unicode="&#xfb01;" horiz-adv-x="1234" d="M266 1239q6 145 96 235.5t224 90.5q47 0 91.5 -14.5t70.5 -39.5l-37 -75q-52 22 -105 22q-211 0 -211 -260v-137h262l-16 -100h-246v-961h-131v961h-162v100h162v29q0 86 2 149zM1044 1284q-25 -8 -65.5 -8t-65.5 8v170q25 8 65.5 8t65.5 -8v-170zM915 1059l132 18v-1077 h-132v1059z" />
<glyph unicode="&#xfb02;" horiz-adv-x="1234" d="M266 1239q6 145 96 235.5t224 90.5q47 0 91.5 -14.5t70.5 -39.5l-37 -75q-52 22 -105 22q-211 0 -211 -260v-137h262l-16 -100h-246v-961h-131v961h-162v100h162v29q0 86 2 149zM915 1540l132 16v-1556h-132v1540z" />
<glyph horiz-adv-x="0" />
<glyph horiz-adv-x="682" />
<glyph unicode=" "  horiz-adv-x="458" />
<glyph unicode="&#x09;" horiz-adv-x="458" />
<glyph unicode="&#xa0;" horiz-adv-x="458" />
<glyph unicode="!" horiz-adv-x="514" d="M197 430l-17 1086h156l-19 -1086h-120zM178 0v236q28 8 71.5 8t69.5 -8v-236q-26 -8 -69.5 -8t-71.5 8z" />
<glyph unicode="&#x22;" horiz-adv-x="565" d="M365 932l-11 543q26 7 65.5 7t65.5 -7l-10 -543h-110zM90 932l-10 543q26 7 65.5 7t65.5 -7l-10 -543h-111z" />
<glyph unicode="#" d="M1001 813h-204l-43 -211h196v-96h-217l-104 -506h-109l105 506h-201l-105 -506h-108l104 506h-170v96h191l43 211h-182v96h202l105 504h108l-104 -504h201l104 504h109l-105 -504h184v-96zM645 602l45 211h-203l-43 -211h201z" />
<glyph unicode="$" d="M977 403q0 -142 -100 -235.5t-259 -114.5v-192h-106v186q-202 6 -342 107l53 98q58 -37 142.5 -59.5t173.5 -22.5q129 0 212 59.5t83 169.5q0 83 -61 146.5t-222 156.5q-90 53 -144 90.5t-101 86t-67 103t-20 124.5q0 126 84.5 218t218.5 120v198h109v-188q194 0 319 -80 l-43 -96q-70 30 -132 42.5t-144 12.5q-118 0 -195.5 -59t-77.5 -158q0 -90 59 -154t201 -143q204 -114 281.5 -203.5t77.5 -212.5z" />
<glyph unicode="%" horiz-adv-x="1470" d="M401 893q-130 0 -208 95t-78 231q0 138 77.5 231.5t208.5 93.5q130 0 208.5 -93.5t78.5 -231.5q0 -136 -79 -231t-208 -95zM170 -29l1004 1573h129l-1006 -1573h-127zM401 995q80 0 128.5 64.5t48.5 159.5q0 96 -48.5 160.5t-128.5 64.5t-128 -64.5t-48 -160.5 q0 -95 48 -159.5t128 -64.5zM1071 -29q-130 0 -208.5 95t-78.5 231q0 138 78 232t209 94q130 0 208.5 -94t78.5 -232q0 -136 -79 -231t-208 -95zM1071 74q80 0 128 64t48 159q0 96 -48 160.5t-128 64.5t-128 -64.5t-48 -160.5q0 -95 48 -159t128 -64z" />
<glyph unicode="&#x26;" horiz-adv-x="1675" d="M1559 18l-117 -69l-230 256q-209 -234 -540 -234q-147 0 -258.5 45.5t-177.5 140t-66 226.5q0 81 28 153t86 136.5t127.5 119t170.5 117.5q-92 100 -130 175.5t-38 160.5q0 127 92 213t233 86q144 0 224.5 -78.5t80.5 -191.5q0 -58 -17 -105t-57.5 -93.5t-89.5 -86 t-130 -96.5l456 -494q97 174 133 414l123 -25q-44 -285 -172 -481zM733 1430q-83 0 -133.5 -51.5t-50.5 -133.5q0 -63 31 -127t104 -145q119 75 172 138t53 146q0 72 -47 122.5t-129 50.5zM688 86q274 0 447 209l-480 536q-180 -113 -263 -212.5t-83 -223.5 q0 -140 102 -224.5t277 -84.5z" />
<glyph unicode="'" horiz-adv-x="290" d="M90 932l-10 543q26 7 65.5 7t65.5 -7l-10 -543h-111z" />
<glyph unicode="(" horiz-adv-x="694" d="M518 -164q-76 77 -130 153.5t-98.5 178.5t-66.5 233.5t-22 294.5t22 294.5t66.5 233.5t98.5 178.5t130 153.5l86 -57q-73 -82 -122.5 -157t-90.5 -171t-60.5 -213t-19.5 -262q0 -190 38 -341t98 -253t157 -208z" />
<glyph unicode=")" horiz-adv-x="694" d="M176 1556q76 -77 130 -153.5t98.5 -178.5t67 -233.5t22.5 -294.5t-22.5 -294.5t-67 -233.5t-98.5 -178.5t-130 -153.5l-86 58q73 83 122 157.5t90 170t61 213t20 261.5t-20 263t-60.5 215t-91 171.5t-121.5 153.5z" />
<glyph unicode="*" horiz-adv-x="1132" d="M367 168l-95 70l230 288l-338 92l37 111l329 -127l-14 373h115l-15 -373l330 127l37 -111l-338 -92l229 -288l-94 -70l-207 315z" />
<glyph unicode="+" horiz-adv-x="1212" d="M1067 733v-102h-408v-471h-106v471h-408v102h408v471h106v-471h408z" />
<glyph unicode="," horiz-adv-x="509" d="M6 -336q91 140 128.5 267t25.5 280q25 11 66 18.5t67 6.5q14 -167 -30 -299.5t-150 -272.5h-107z" />
<glyph unicode="-" horiz-adv-x="794" d="M188 545v100h418v-100h-418z" />
<glyph unicode="." horiz-adv-x="514" d="M141 0v236q26 8 71 8t71 -8v-236q-26 -8 -71 -8t-71 8z" />
<glyph unicode="/" horiz-adv-x="694" d="M63 -61l457 1597h111l-457 -1597h-111z" />
<glyph unicode="0" d="M573 1544q98 0 175.5 -37t131.5 -104.5t89.5 -165.5t52 -217t16.5 -262q0 -179 -27 -321t-82 -247.5t-145 -162t-211 -56.5q-122 0 -212 56.5t-145 162t-81 247t-26 321.5t27 321.5t82 246.5t144.5 161.5t210.5 56.5zM573 86q111 0 185 82.5t107.5 230t33.5 359.5 q0 323 -80 497.5t-246 174.5t-245.5 -174.5t-79.5 -497.5q0 -212 33.5 -359.5t107 -230t184.5 -82.5z" />
<glyph unicode="1" d="M694 1528h109v-1528h-133v1376l-404 -184l-47 90z" />
<glyph unicode="2" d="M317 115l699 -2l-17 -113h-878v59l418 566q151 202 213.5 322t62.5 229q0 127 -78 190.5t-207 63.5q-81 0 -152.5 -27t-150.5 -82l-51 84q162 139 381 139q186 0 295 -96.5t109 -265.5q0 -116 -66.5 -243t-247.5 -372z" />
<glyph unicode="3" d="M698 827q71 -17 126.5 -48.5t89.5 -69.5t55.5 -85t30 -91.5t8.5 -92.5q0 -112 -46.5 -203t-123.5 -148t-173.5 -87.5t-201.5 -30.5q-222 0 -348 97l41 88q134 -70 305 -70q180 0 290.5 96t110.5 260q0 142 -85 229t-255 87h-174l-2 112h203q123 0 199.5 87.5t76.5 209.5 q0 127 -83 195t-216 68q-157 0 -301 -91l-45 86q156 119 373 119q180 0 297 -96.5t117 -265.5q0 -121 -70.5 -217t-198.5 -138z" />
<glyph unicode="4" d="M1092 555l-17 -113h-192v-442h-133v442l-684 -2v58l698 1020h119v-963h209zM750 1311l-512 -756h512v756z" />
<glyph unicode="5" d="M455 922q117 0 214.5 -28.5t171.5 -84t115 -145.5t41 -207q0 -114 -43.5 -207.5t-116.5 -153.5t-165.5 -92.5t-194.5 -32.5q-202 0 -344 97l45 88q137 -70 301 -70q166 0 269.5 99.5t103.5 254.5q2 180 -107 274.5t-329 94.5h-146l-34 31l79 678h672l-16 -113h-549 l-55 -483h88z" />
<glyph unicode="6" d="M616 932q197 0 320 -127.5t123 -333.5q0 -223 -133.5 -361.5t-333.5 -138.5q-85 0 -156.5 24t-131 77.5t-100.5 134t-64 198t-23 265.5q0 134 18 254.5t61.5 236t110.5 198.5t172 134t238 51q193 0 293 -84l-43 -86q-115 56 -234 56q-114 0 -203 -49t-145.5 -138 t-87.5 -205.5t-37 -259.5q62 76 154 115t202 39zM604 86q136 0 222.5 103t86.5 274q0 166 -90.5 259t-234.5 93q-210 0 -330 -162q-2 -23 -2 -71q0 -235 95 -365.5t253 -130.5z" />
<glyph unicode="7" d="M154 1516h952v-64q-239 -321 -408 -696.5t-258 -755.5h-143q118 424 269 762.5t370 640.5h-799z" />
<glyph unicode="8" d="M729 793q309 -146 309 -410q0 -182 -136 -297t-343 -115q-199 0 -323.5 107.5t-124.5 302.5q0 145 84.5 255.5t230.5 170.5q-233 127 -233 356q0 160 118 270.5t299 110.5q183 0 290.5 -105.5t107.5 -260.5q0 -124 -72.5 -223.5t-206.5 -161.5zM332 1169 q0 -105 66.5 -187t219.5 -144q125 52 187.5 137.5t62.5 187.5q0 114 -71 191.5t-193 77.5q-119 0 -195.5 -75.5t-76.5 -187.5zM573 84q138 0 231 79t93 216q0 121 -83 205.5t-296 179.5q-266 -128 -266 -361q0 -152 88.5 -235.5t232.5 -83.5z" />
<glyph unicode="9" d="M555 1544q107 0 192 -39t149.5 -121t99 -218t34.5 -320q0 -134 -18 -254.5t-61.5 -236t-110 -199t-171.5 -134.5t-237 -51q-190 0 -295 84l43 86q115 -55 234 -55q114 0 202 48.5t144.5 137.5t87.5 205.5t37 259.5q-122 -151 -355 -151q-197 0 -319.5 126t-122.5 332 q0 223 133.5 361.5t333.5 138.5zM559 700q109 0 188.5 39.5t141.5 122.5q2 25 2 74q0 234 -95 364t-253 130q-135 0 -222.5 -103.5t-87.5 -273.5q0 -166 91 -259.5t235 -93.5z" />
<glyph unicode=":" horiz-adv-x="509" d="M141 827v236q26 6 71 6t71 -6v-236q-26 -7 -71 -7t-71 7zM141 -4v235q26 7 71 7t71 -7v-235q-26 -6 -71 -6t-71 6z" />
<glyph unicode=";" horiz-adv-x="509" d="M139 827v236q26 6 70 6t72 -6v-236q-28 -7 -72 -7t-70 7zM-8 -336q91 140 128 266.5t25 280.5q25 11 67 18.5t69 6.5q13 -167 -32 -299.5t-151 -272.5h-106z" />
<glyph unicode="&#x3c;" horiz-adv-x="956" d="M844 969v-127l-557 -299l557 -297v-127l-678 381v88z" />
<glyph unicode="=" horiz-adv-x="1212" d="M242 690v103h729v-103h-729zM242 395v103h729v-103h-729z" />
<glyph unicode="&#x3e;" horiz-adv-x="956" d="M115 969l678 -381v-88l-678 -381v125l555 299l-555 297v129z" />
<glyph unicode="?" horiz-adv-x="956" d="M870 1139q0 -162 -108 -285t-279 -168v-256h-129v336q76 11 142 39t119 72t83.5 110t30.5 146q0 145 -88 221t-221 76q-170 0 -307 -121l-60 90q76 69 177 107t204 38q197 0 316.5 -108t119.5 -297zM340 236q26 8 70.5 8t70.5 -8v-236q-26 -8 -70.5 -8t-70.5 8v236z" />
<glyph unicode="@" horiz-adv-x="2109" d="M1085 1053q152 0 293 -78v-586q0 -83 17.5 -115t54.5 -32q60 0 117 25.5t108.5 78t83 147t31.5 218.5q0 137 -49 256.5t-137.5 207t-220 137.5t-289.5 50q-166 0 -316.5 -62.5t-260 -170t-174 -260.5t-64.5 -326q0 -175 58 -319.5t158.5 -239t235.5 -146t291 -51.5 q310 0 588 158l35 -74q-295 -184 -627 -184q-137 0 -262.5 34.5t-232 105.5t-185 171t-122.5 239t-44 302q0 190 72 360.5t195.5 294t295 196t363.5 72.5q178 0 329 -57.5t253.5 -158t160 -238.5t57.5 -297q0 -116 -28.5 -213t-77 -164t-113 -113.5t-136 -68t-146.5 -21.5 q-129 0 -146 119q-100 -139 -264 -139q-346 0 -346 448q0 241 119 367.5t325 126.5zM1008 217q158 0 239 156l4 536q-75 37 -184 37q-136 0 -211.5 -92.5t-75.5 -288.5q0 -187 59 -267.5t169 -80.5z" />
<glyph unicode="A" horiz-adv-x="1402" d="M1174 0l-179 530h-600l-190 -530h-144l566 1516h172l524 -1516h-149zM707 1397l-273 -750h524z" />
<glyph unicode="B" horiz-adv-x="1245" d="M801 795q148 -26 230.5 -124t82.5 -251q0 -94 -34 -169.5t-93.5 -124.5t-133.5 -78t-159 -38q-110 -10 -225 -10h-174h-105v1516h134h149q113 0 189 -5q175 -12 268.5 -105t93.5 -257q0 -110 -63 -210t-160 -144zM551 1399h-227v-561h352q82 0 142.5 87t60.5 195 q0 154 -76.5 216.5t-251.5 62.5zM553 117q416 0 416 305q0 141 -80 220t-238 79h-327v-604h229z" />
<glyph unicode="C" horiz-adv-x="1312" d="M758 -29q-152 0 -273 46t-210 138.5t-137 240.5t-48 343q0 187 56 339.5t155 254t234.5 156.5t293.5 55q234 0 396 -90l-39 -98q-150 67 -357 67q-267 0 -430 -176t-163 -499q0 -172 41.5 -300.5t116 -205t169.5 -113.5t211 -37q119 0 209 27.5t180 87.5l51 -98 q-201 -138 -456 -138z" />
<glyph unicode="D" horiz-adv-x="1452" d="M190 0v1516h355q136 0 223 -11q130 -18 236 -69.5t187 -137t126 -213.5t45 -288q0 -173 -47 -313.5t-129.5 -233t-183.5 -149.5t-220 -81q-109 -20 -266 -20h-326zM324 117h262q289 0 460 178.5t171 497.5q0 298 -159.5 452t-467.5 154h-266v-1282z" />
<glyph unicode="E" horiz-adv-x="1118" d="M190 0v1516h824l-17 -113h-673v-574h630l-16 -112h-614v-604h698l-16 -113h-816z" />
<glyph unicode="F" horiz-adv-x="1099" d="M190 0v1516h828l-17 -113h-677v-582h643l-17 -110h-626v-711h-134z" />
<glyph unicode="G" horiz-adv-x="1376" d="M1087 145v578h134v-649q-177 -103 -455 -103q-144 0 -264.5 44.5t-213.5 135t-145.5 240.5t-52.5 348q0 196 55.5 351.5t153.5 253.5t228 149t284 51q261 0 420 -84l-41 -104q-143 67 -379 67q-126 0 -229.5 -41t-181.5 -121.5t-121 -210.5t-43 -298q0 -139 28.5 -250.5 t78.5 -187t120 -126.5t150 -73.5t171 -22.5q187 0 303 53z" />
<glyph unicode="H" horiz-adv-x="1515" d="M190 0v1516h134v-695h870v695h133v-1516h-133v709h-870v-709h-134z" />
<glyph unicode="I" horiz-adv-x="512" d="M190 0v1516h134v-1516h-134z" />
<glyph unicode="J" horiz-adv-x="774" d="M274 -29q-98 0 -163 33l18 98q60 -16 125 -16q110 0 153.5 58t43.5 208v1164h133v-1106q0 -109 -2 -150q-9 -140 -87 -214.5t-221 -74.5z" />
<glyph unicode="K" horiz-adv-x="1243" d="M190 0v1516h134v-1516h-134zM1024 0l-672 756l688 760l148 -21l-668 -729l697 -766h-193z" />
<glyph unicode="L" d="M190 0v1516h134v-1403h745l-16 -113h-863z" />
<glyph unicode="M" horiz-adv-x="1882" d="M1718 0h-133l-117 1337l-497 -1296h-107l-452 1255l-129 -1296h-123l153 1516h152l463 -1287l493 1287h162z" />
<glyph unicode="N" horiz-adv-x="1531" d="M1214 1516h127v-1516h-120l-904 1282v-1282h-127v1516h119l905 -1283v1283z" />
<glyph unicode="O" horiz-adv-x="1550" d="M774 1544q142 0 265.5 -52t217 -149t147.5 -248t54 -337t-54 -337t-147.5 -248.5t-217 -149.5t-265.5 -52q-141 0 -264.5 52t-217.5 149.5t-148 248.5t-54 337t54 337t148 248t217.5 149t264.5 52zM774 86q240 0 389.5 182.5t149.5 489.5t-149.5 489.5t-389.5 182.5 q-239 0 -388.5 -182.5t-149.5 -489.5t149.5 -489.5t388.5 -182.5z" />
<glyph unicode="P" horiz-adv-x="1144" d="M668 1509q199 -22 303 -134t104 -302q0 -188 -117.5 -313t-310.5 -142q-86 -10 -229 -10h-94v-608h-134v1516h211q151 0 267 -7zM545 727q190 0 289.5 90t99.5 250q0 332 -367 332h-243v-672h221z" />
<glyph unicode="Q" horiz-adv-x="1550" d="M991 4l482 -366l-136 -74l-358 313q-58 52 -103 71.5t-102 22.5q-141 0 -264.5 52t-217.5 149.5t-148 248.5t-54 337t54 337t148 248t217.5 149t264.5 52q142 0 265.5 -52t217 -149t147.5 -248t54 -337q0 -295 -128 -490t-339 -264zM236 758q0 -307 149.5 -489.5 t388.5 -182.5q240 0 389.5 182.5t149.5 489.5t-149.5 489.5t-389.5 182.5q-239 0 -388.5 -182.5t-149.5 -489.5z" />
<glyph unicode="R" horiz-adv-x="1212" d="M969 0l-305 647h-340v-647h-134v1516h318q108 0 190 -7q183 -20 283 -131.5t100 -285.5q0 -151 -77 -260t-211 -154l335 -678h-159zM324 760h319q135 0 214 94.5t79 222.5q0 168 -87.5 247t-268.5 79h-256v-643z" />
<glyph unicode="S" horiz-adv-x="1136" d="M518 -29q-260 0 -399 131l59 99q149 -109 348 -109q140 0 234 69t94 195q0 106 -75.5 188.5t-264.5 194.5q-82 50 -136.5 91.5t-98 92.5t-64 110.5t-20.5 131.5q0 174 128.5 276.5t333.5 102.5q180 0 310 -78l-45 -100q-106 57 -277 57q-145 0 -227 -66t-82 -175 q0 -97 63.5 -175.5t202.5 -162.5q108 -65 175.5 -114.5t121 -107t77 -119t23.5 -136.5q0 -183 -137 -289.5t-344 -106.5z" />
<glyph unicode="T" horiz-adv-x="1155" d="M504 0v1403h-471v113h1100l-21 -113h-473v-1403h-135z" />
<glyph unicode="U" horiz-adv-x="1325" d="M664 -29q-445 0 -488 447q-6 68 -6 258v840h133v-996q0 -121 26 -206.5t76.5 -134.5t115 -71t149.5 -22q352 0 352 434v996h133v-840q0 -190 -6 -258q-20 -215 -145.5 -331t-339.5 -116z" />
<glyph unicode="V" horiz-adv-x="1345" d="M1165 1516h144l-566 -1516h-172l-524 1516h148l467 -1397z" />
<glyph unicode="W" horiz-adv-x="1959" d="M1792 1516h133l-432 -1516h-152l-354 1280l-381 -1280h-149l-410 1516h148l340 -1356l391 1313h129l370 -1330z" />
<glyph unicode="X" horiz-adv-x="1308" d="M1206 0h-164l-387 672l-397 -672h-162l488 764l-445 752h160l363 -650l385 650h153l-461 -736z" />
<glyph unicode="Y" horiz-adv-x="1177" d="M1149 1516l-494 -850v-666h-133v668l-485 848h160l397 -736l410 736h145z" />
<glyph unicode="Z" horiz-adv-x="1261" d="M299 113h877l-21 -113h-1022v82l803 1321h-752v113h920v-78z" />
<glyph unicode="[" horiz-adv-x="681" d="M590 1427h-242v-1490h242v-101h-348v1591v101h348v-101z" />
<glyph unicode="\" horiz-adv-x="694" d="M631 -61h-111l-457 1597h111z" />
<glyph unicode="]" horiz-adv-x="681" d="M440 1528v-1591v-101h-348v101h242v1490h-242v101h348z" />
<glyph unicode="^" horiz-adv-x="1021" d="M881 553h-127l-242 545l-246 -545h-125l326 678h90z" />
<glyph unicode="_" horiz-adv-x="1024" d="M188 -158v101h648v-101h-648z" />
<glyph unicode="`" horiz-adv-x="483" d="M317 1237l-235 319h160l159 -319h-84z" />
<glyph unicode="a" horiz-adv-x="1056" d="M905 0l-129 -16l-24 104q-170 -117 -334 -117q-143 0 -226 76t-83 246q0 158 115.5 240.5t316.5 82.5q103 0 207 -22v135q0 124 -62 189t-199 65q-136 0 -262 -70l-39 91q155 88 330 88q161 0 256.5 -77.5t104.5 -221.5q2 -47 2 -164v-387q0 -124 26 -242zM244 303 q0 -225 219 -225q147 0 285 96v322q-91 16 -216 16q-288 0 -288 -209z" />
<glyph unicode="b" d="M565 1092q112 0 196.5 -27.5t148.5 -89t97 -166.5t33 -252q0 -282 -123.5 -434t-375.5 -152q-189 0 -351 54v1515l132 16v-491q120 27 243 27zM553 78q352 0 352 459q0 239 -89.5 342.5t-278.5 103.5q-123 0 -215 -25v-852q123 -28 231 -28z" />
<glyph unicode="c" horiz-adv-x="952" d="M537 -29q-431 0 -431 543q0 296 128 437t380 141q143 0 258 -54l-24 -92q-118 37 -246 37q-181 0 -270.5 -104.5t-89.5 -352.5q0 -233 79 -340.5t242 -107.5q132 0 281 53l24 -92q-151 -68 -331 -68z" />
<glyph unicode="d" d="M825 1540l131 16v-1529q-191 -56 -374 -56q-112 0 -197 27.5t-149 88.5t-97 166t-33 253q0 281 124 433.5t376 152.5q111 0 219 -23v471zM242 526q0 -240 89.5 -344t278.5 -104q116 0 215 24v854q-119 27 -231 27q-352 0 -352 -457z" />
<glyph unicode="e" horiz-adv-x="1044" d="M561 82q169 0 301 59l31 -96q-157 -74 -340 -74q-232 0 -339.5 130.5t-107.5 414.5q0 296 117.5 436t327.5 140q177 0 268 -102t103 -306q4 -68 4 -178h-690q6 -233 85 -328.5t240 -95.5zM545 983q-143 0 -219.5 -88.5t-85.5 -286.5h559q-4 212 -61.5 293.5t-192.5 81.5z " />
<glyph unicode="f" horiz-adv-x="724" d="M606 1458q-211 0 -211 -260v-137h262l-16 -100h-246v-961h-131v961h-162v100h162v29q0 86 2 149q6 145 96 235.5t224 90.5q47 0 91.5 -14.5t70.5 -39.5l-37 -75q-52 22 -105 22z" />
<glyph unicode="g" horiz-adv-x="1099" d="M1006 1063l-17 -102h-149q75 -91 75 -220q0 -85 -39.5 -157.5t-109.5 -118.5q-53 -62 -53 -123q0 -70 75 -127q85 -65 131 -137.5t46 -167.5q0 -162 -126.5 -261.5t-340.5 -99.5q-193 0 -308.5 82.5t-115.5 245.5q0 87 35 156t94.5 111.5t134.5 64.5t160 22q76 0 135 -20 q-37 43 -37 96q0 49 31 96q-49 -12 -105 -12q-166 0 -275.5 95t-109.5 249q0 157 115.5 254.5t284.5 97.5q81 0 155 -24h314zM526 494q109 0 184.5 64t75.5 183q0 114 -73 179t-183 65q-108 0 -187 -66t-79 -184q0 -113 77.5 -177t184.5 -64zM829 -92q0 132 -96 205 q-85 26 -182 26q-165 0 -256.5 -63.5t-91.5 -184.5q0 -116 81 -175.5t220 -59.5q156 0 240.5 71t84.5 181z" />
<glyph unicode="h" horiz-adv-x="1159" d="M995 805q4 -47 4 -162v-643h-131v690q0 158 -63.5 225.5t-204.5 67.5q-146 0 -278 -106v-877h-132v1540l132 16v-573q147 109 327 109q156 0 244 -67.5t102 -219.5z" />
<glyph unicode="i" horiz-adv-x="509" d="M188 1284v170q25 8 65.5 8t65.5 -8v-170q-25 -8 -65.5 -8t-65.5 8zM190 0v1059l132 18v-1077h-132z" />
<glyph unicode="j" horiz-adv-x="542" d="M219 1284v170q25 8 65.5 8t65.5 -8v-170q-25 -8 -65.5 -8t-65.5 8zM82 -451l-53 105q112 27 152 103t40 241v1069l131 16v-985q0 -158 -2 -209q-8 -133 -70.5 -217.5t-197.5 -122.5z" />
<glyph unicode="k" horiz-adv-x="1087" d="M190 0v1540l132 16v-1556h-132zM502 569l526 -569h-180l-494 553l506 530l144 -20z" />
<glyph unicode="l" horiz-adv-x="509" d="M190 0v1540l132 16v-1556h-132z" />
<glyph unicode="m" horiz-adv-x="1765" d="M1602 805q4 -47 4 -162v-643h-131v690q0 156 -60 224.5t-186 68.5q-81 0 -147.5 -22.5t-137.5 -75.5q11 -34 14 -80q5 -59 5 -162v-643h-132v690q0 157 -60 225t-191 68q-143 0 -258 -80v-903h-132v1059l132 18v-78q142 93 307 93q206 0 284 -127q165 127 365 127 q145 0 227.5 -67.5t96.5 -219.5z" />
<glyph unicode="n" horiz-adv-x="1159" d="M995 805q4 -47 4 -162v-643h-131v690q0 158 -63.5 225.5t-204.5 67.5q-146 0 -278 -106v-877h-132v1059l132 18v-94q147 109 327 109q157 0 245 -67.5t101 -219.5z" />
<glyph unicode="o" horiz-adv-x="1171" d="M586 1090q224 0 351.5 -143.5t127.5 -416.5q0 -272 -127.5 -415.5t-351.5 -143.5t-352 143.5t-128 415.5q0 273 128 416.5t352 143.5zM586 80q158 0 250 112t92 338q0 228 -92 340.5t-250 112.5q-159 0 -250.5 -112.5t-91.5 -340.5q0 -227 91.5 -338.5t250.5 -111.5z" />
<glyph unicode="p" d="M565 1092q112 0 196.5 -27.5t148.5 -89t97 -166.5t33 -252q0 -282 -123.5 -434t-375.5 -152q-120 0 -219 21v-402l-132 -18v1462q188 58 375 58zM553 78q352 0 352 459q0 239 -89.5 342.5t-278.5 103.5q-123 0 -215 -25v-852q123 -28 231 -28z" />
<glyph unicode="q" d="M606 1092q182 0 350 -56v-1446l-131 -18v426q-108 -27 -243 -27q-112 0 -197 27.5t-149 88.5t-97 166t-33 253q0 281 124 433.5t376 152.5zM610 78q116 0 215 24v854q-119 27 -231 27q-352 0 -352 -457q0 -240 89.5 -344t278.5 -104z" />
<glyph unicode="r" horiz-adv-x="700" d="M190 0v1053l132 18v-131q70 152 215 152q63 0 110 -31l-14 -111q-56 17 -109 17q-138 0 -202 -146v-821h-132z" />
<glyph unicode="s" horiz-adv-x="942" d="M436 -29q-200 0 -327 113l55 88q127 -94 280 -94q107 0 170.5 49t63.5 137q0 43 -12.5 75t-45.5 61t-77 53t-119 57q-46 20 -80 38t-70 45.5t-59 57.5t-38 71.5t-15 90.5q0 128 94 204.5t250 76.5q173 0 293 -86l-45 -95q-113 74 -252 74q-97 0 -152 -43t-55 -121 q0 -40 14 -71.5t45.5 -57t64.5 -43.5t89 -43q80 -36 128.5 -64.5t92 -68t63 -88.5t19.5 -113q0 -144 -105.5 -223.5t-269.5 -79.5z" />
<glyph unicode="t" horiz-adv-x="772" d="M678 109l27 -86q-102 -52 -211 -52q-118 0 -178 59.5t-66 155.5q-4 55 -4 179v596h-156v102h156v264l131 23v-287h315l-16 -102h-299v-650q0 -130 38 -179.5t132 -49.5q65 0 131 27z" />
<glyph unicode="u" d="M827 1053l131 18v-1071h-131v86q-138 -111 -327 -111q-321 0 -346 297q-4 47 -4 164v617l131 18v-694q0 -159 62 -227t200 -68q149 0 284 106v865z" />
<glyph unicode="v" horiz-adv-x="1067" d="M881 1063h135l-432 -1063h-113l-414 1063h148l327 -918z" />
<glyph unicode="w" horiz-adv-x="1615" d="M1417 1063h131l-350 -1063h-117l-268 831l-287 -831h-118l-334 1063h147l252 -905l301 878h90l279 -878z" />
<glyph unicode="x" horiz-adv-x="1058" d="M973 1063l-379 -520l375 -543h-162l-287 453l-291 -453h-153l377 532l-355 531h162l266 -442l287 442h160z" />
<glyph unicode="y" horiz-adv-x="1067" d="M868 1063h148l-387 -911q-120 -283 -228.5 -415t-267.5 -188l-70 101q258 99 388 387l-396 1026h150l315 -909z" />
<glyph unicode="z" horiz-adv-x="1007" d="M291 102h643l-19 -102h-794v74l579 887h-526v102h692v-70z" />
<glyph unicode="{" horiz-adv-x="663" d="M561 1446q-143 0 -143 -143q0 -50 12 -160q19 -168 19 -234q0 -100 -42 -158t-120 -69q78 -11 120 -69t42 -158q0 -66 -19 -234q-12 -110 -12 -160q0 -72 38.5 -108.5t104.5 -34.5h25v-100h-23q-127 0 -190.5 54.5t-63.5 180.5q0 59 15 189q16 151 16 217q0 81 -36.5 122 t-125.5 50v102q89 9 125.5 50t36.5 122q0 66 -16 217q-15 130 -15 189q0 126 63.5 180.5t190.5 54.5h23v-100h-25z" />
<glyph unicode="|" horiz-adv-x="677" d="M291 -410v2048h108v-2048h-108z" />
<glyph unicode="}" horiz-adv-x="663" d="M322 905q0 -81 36 -122t125 -50v-102q-89 -9 -125 -50t-36 -122q0 -66 16 -217q14 -121 14 -189q0 -126 -63.5 -180.5t-188.5 -54.5h-22v100h24q144 0 144 143q0 40 -13 160q-18 159 -18 234q0 100 41 158.5t119 68.5q-78 10 -119 68.5t-41 158.5q0 75 18 234 q13 120 13 160q0 71 -39.5 108t-104.5 35h-24v100h22q125 0 188.5 -54.5t63.5 -180.5q0 -68 -14 -189q-16 -151 -16 -217z" />
<glyph unicode="~" horiz-adv-x="1212" d="M813 465q-91 0 -254 82q-73 37 -114 52t-78 15q-93 0 -93 -133h-100q0 130 49 185t150 55q51 0 107.5 -19t146.5 -63q79 -39 118 -53.5t74 -14.5q92 0 92 134h103q0 -130 -50 -185t-151 -55z" />
<glyph unicode="&#xa1;" horiz-adv-x="514" d="M336 1063v-236q-28 -7 -71.5 -7t-69.5 7v236q26 7 69.5 7t71.5 -7zM317 633l19 -1088h-156l17 1088h120z" />
<glyph unicode="&#xa2;" d="M905 211l25 -96q-128 -63 -264 -68v-178h-109v178q-186 14 -287.5 139t-101.5 369q0 229 102.5 364t292.5 164v187h109v-180q0 2 2 2q143 0 258 -43l-21 -101q-106 35 -247 35q-173 0 -266 -103t-93 -313q0 -415 328 -415q132 0 272 59z" />
<glyph unicode="&#xa3;" d="M340 113h707v-113h-934v63q121 41 188.5 130.5t67.5 205.5q0 88 -33 273h-205v102h188q-32 177 -32 322q0 126 46.5 225t144 160t233.5 61q192 0 297 -108l-45 -84q-119 77 -244 77q-135 0 -212 -83t-77 -246q0 -124 35 -324h399v-102h-381q29 -185 29 -256 q0 -99 -42.5 -180t-129.5 -123z" />
<glyph unicode="&#xa4;" d="M938 616q0 -128 -76 -227l121 -121l-65 -63l-119 119q-102 -76 -228 -76q-123 0 -225 76l-119 -119l-65 65l121 119q-76 99 -76 227t76 230l-121 121l65 63l121 -121q99 76 223 76q127 0 226 -76l121 121l65 -63l-121 -123q76 -99 76 -228zM571 340q117 0 193 78t76 198 t-76 199.5t-193 79.5q-115 0 -190.5 -79.5t-75.5 -199.5t75 -198t191 -78z" />
<glyph unicode="&#xa5;" d="M1096 1516l-414 -746h260v-102h-317l-2 -4v-166h319v-103h-319v-395h-134v395h-303v103h303v170h-303v102h252l-385 746h160l350 -756l383 756h150z" />
<glyph unicode="&#xa6;" horiz-adv-x="677" d="M291 717v696h108v-696h-108zM291 -328v697h108v-697h-108z" />
<glyph unicode="&#xa7;" horiz-adv-x="1161" d="M1024 438q0 -94 -48.5 -162.5t-162.5 -136.5q62 -49 88.5 -102t26.5 -127q0 -139 -111 -224t-280 -85q-210 0 -330 102l51 88q115 -76 274 -76q112 0 182 52t70 135q0 84 -63.5 141.5t-237.5 134.5q-63 29 -107 52.5t-92.5 58t-77.5 70.5t-48 85.5t-19 106.5 q0 93 47.5 160t159.5 135q-65 47 -92 97.5t-27 123.5q0 142 111.5 227.5t282.5 85.5q197 0 317 -102l-49 -88q-118 76 -264 76q-115 0 -184.5 -51.5t-69.5 -135.5q0 -83 64 -135t245 -133q63 -29 107 -52.5t92.5 -58t77.5 -70.5t48 -85.5t19 -106.5zM743 186 q138 105 138 232q0 84 -56 143.5t-194 128.5q-151 74 -213 111q-70 -53 -102.5 -108t-32.5 -122q0 -85 55.5 -144t193.5 -128q136 -68 211 -113z" />
<glyph unicode="&#xa8;" horiz-adv-x="569" d="M82 1284v170q25 8 65.5 8t65.5 -8v-170q-25 -8 -65.5 -8t-65.5 8zM356 1284v170q25 8 65 8t66 -8v-170q-26 -8 -66 -8t-65 8z" />
<glyph unicode="&#xa9;" horiz-adv-x="1855" d="M928 -131q-217 0 -397 104.5t-284 287.5t-104 405q0 166 61 314t166 253.5t250.5 167t307.5 61.5t307.5 -61.5t250 -167t165.5 -253.5t61 -314t-61 -314t-165.5 -254t-250 -167.5t-307.5 -61.5zM928 -35q190 0 346.5 91.5t246 252.5t89.5 357q0 147 -53 277t-143.5 223 t-217 146.5t-268.5 53.5q-143 0 -269.5 -53.5t-217 -146.5t-143 -223t-52.5 -277t52.5 -277.5t143 -223t217 -146.5t269.5 -54zM942 240q-168 0 -271.5 107.5t-103.5 314.5q0 213 114.5 328.5t291.5 115.5q133 0 227 -55l-31 -84q-85 37 -196 37q-129 0 -204 -87t-75 -249 q0 -86 23.5 -151.5t63 -102t85 -54.5t95.5 -18q121 0 204 55l39 -82q-119 -75 -262 -75z" />
<glyph unicode="&#xab;" horiz-adv-x="1030" d="M485 172l-329 336l329 336l66 -49l-260 -287l260 -287zM858 172l-330 336l330 336l68 -49l-262 -287l262 -287z" />
<glyph unicode="&#xac;" horiz-adv-x="1228" d="M848 430v258h-643v103h749v-361h-106z" />
<glyph unicode="&#xad;" horiz-adv-x="794" d="M188 545v100h418v-100h-418z" />
<glyph unicode="&#xae;" horiz-adv-x="1855" d="M928 1462q162 0 307.5 -61.5t250 -167t165.5 -253.5t61 -314t-61 -314t-165.5 -254t-250 -167.5t-307.5 -61.5q-217 0 -397 104.5t-284 287.5t-104 405q0 166 61 314t166 253.5t250.5 167t307.5 61.5zM928 -35q190 0 346.5 91.5t246 252.5t89.5 357q0 147 -53 277 t-143.5 223t-217 146.5t-268.5 53.5q-143 0 -269.5 -53.5t-217 -146.5t-143 -223t-52.5 -277t52.5 -277.5t143 -223t217 -146.5t269.5 -54zM1212 854q0 -169 -157 -233l172 -361h-137l-146 340h-143v-340h-117v834h176q72 0 133 -7q103 -10 161 -72.5t58 -160.5zM801 694 h160q58 0 92 41t34 109q0 155 -161 155h-125v-305z" />
<glyph unicode="&#xaf;" horiz-adv-x="563" d="M82 1335v90h399v-90h-399z" />
<glyph unicode="&#xb0;" horiz-adv-x="716" d="M338 954q-106 0 -175 68.5t-69 175.5t69 175.5t175 68.5q107 0 176.5 -68.5t69.5 -175.5t-69.5 -175.5t-176.5 -68.5zM338 1042q65 0 106 43.5t41 112.5t-41 112.5t-106 43.5q-64 0 -106 -44t-42 -112t42 -112t106 -44z" />
<glyph unicode="&#xb1;" horiz-adv-x="1187" d="M541 238v366h-357v103h357v358h106v-358h357v-103h-357v-366h-106zM184 0v102h820v-102h-820z" />
<glyph unicode="&#xb4;" horiz-adv-x="483" d="M82 1237l160 319h159l-235 -319h-84z" />
<glyph unicode="&#xb6;" horiz-adv-x="1228" d="M1006 1413v-1638h-107v1538h-201v-1538h-106v880h-66q-79 0 -114 2q-151 9 -236.5 116.5t-85.5 260.5t85.5 260.5t236.5 116.5q35 2 114 2h480z" />
<glyph unicode="&#xb7;" horiz-adv-x="417" d="M131 426v236q26 8 70.5 8t70.5 -8v-236q-26 -6 -70.5 -6t-70.5 6z" />
<glyph unicode="&#xb8;" horiz-adv-x="540" d="M274 -94q86 -7 135.5 -50t49.5 -108q0 -84 -69.5 -131t-172.5 -47q-85 0 -135 33l33 69q42 -18 96 -18q63 0 102 24t39 70q0 50 -49 72t-139 14l80 178h80z" />
<glyph unicode="&#xbb;" horiz-adv-x="1030" d="M172 844l330 -336l-330 -336l-68 49l263 287l-263 287zM547 844l330 -336l-330 -336l-68 49l262 287l-262 287z" />
<glyph unicode="&#xbf;" horiz-adv-x="870" d="M616 827q-26 -7 -70.5 -7t-70.5 7v236q26 7 70.5 7t70.5 -7v-236zM844 -248l57 -88q-77 -69 -177 -108t-202 -39q-197 0 -316.5 108t-119.5 297q0 164 108 286.5t279 166.5v258h129v-336q-77 -12 -142.5 -40t-118.5 -72t-83.5 -110t-30.5 -147q0 -145 87.5 -220 t222.5 -75q169 0 307 119z" />
<glyph unicode="&#xc0;" horiz-adv-x="1402" d="M791 1636h-95l-239 279h161zM1174 0l-179 530h-600l-190 -530h-144l566 1516h172l524 -1516h-149zM707 1397l-273 -750h524z" />
<glyph unicode="&#xc1;" horiz-adv-x="1402" d="M971 1915l-240 -279h-94l172 279h162zM1174 0l-179 530h-600l-190 -530h-144l566 1516h172l524 -1516h-149zM707 1397l-273 -750h524z" />
<glyph unicode="&#xc2;" horiz-adv-x="1402" d="M709 1827l-160 -191h-105l203 279h123l203 -279h-105zM1174 0l-179 530h-600l-190 -530h-144l566 1516h172l524 -1516h-149zM707 1397l-273 -750h524z" />
<glyph unicode="&#xc3;" horiz-adv-x="1402" d="M584 1774q-31 0 -47 -25.5t-25 -93.5l-78 8q15 215 141 215q31 0 63.5 -11.5t94.5 -43.5q57 -31 81.5 -41t43.5 -10q31 0 47 25t25 93l78 -8q-15 -215 -142 -215q-31 0 -62.5 11.5t-94.5 43.5q-61 33 -84 42.5t-41 9.5zM1174 0l-179 530h-600l-190 -530h-144l566 1516 h172l524 -1516h-149zM707 1397l-273 -750h524z" />
<glyph unicode="&#xc4;" horiz-adv-x="1402" d="M641 1683q-25 -7 -65.5 -7t-65.5 7v170q25 7 65.5 7t65.5 -7v-170zM915 1683q-26 -7 -66 -7t-65 7v170q25 7 65 7t66 -7v-170zM1174 0l-179 530h-600l-190 -530h-144l566 1516h172l524 -1516h-149zM707 1397l-273 -750h524z" />
<glyph unicode="&#xc5;" horiz-adv-x="1402" d="M713 1591q-86 0 -145.5 51t-59.5 127q0 77 59.5 128t145.5 51t145.5 -51t59.5 -128q0 -76 -59.5 -127t-145.5 -51zM713 1878q-50 0 -82.5 -31t-32.5 -78t32.5 -77.5t82.5 -30.5q48 0 81 30.5t33 77.5t-33 78t-81 31zM1174 0l-179 530h-600l-190 -530h-144l566 1516h172 l524 -1516h-149zM707 1397l-273 -750h524z" />
<glyph unicode="&#xc6;" horiz-adv-x="1835" d="M1040 113h699l-17 -113h-817v530h-483l-313 -530h-144l901 1516h129h736l-17 -113h-674v-574h631l-16 -112h-615v-604zM492 647h413v701z" />
<glyph unicode="&#xc7;" horiz-adv-x="1312" d="M1214 109q-196 -133 -434 -138l-30 -65q86 -7 135 -50t49 -108q0 -84 -69.5 -131t-172.5 -47q-85 0 -135 33l33 69q42 -18 96 -18q63 0 102 24t39 70q0 50 -49 72t-139 14l61 139q-287 16 -448.5 207t-161.5 559q0 187 56 339.5t155 254t234.5 156.5t293.5 55 q234 0 396 -90l-39 -98q-150 67 -357 67q-267 0 -430 -176t-163 -499q0 -172 41.5 -300.5t116 -205t169.5 -113.5t211 -37q119 0 209 27.5t180 87.5z" />
<glyph unicode="&#xc8;" horiz-adv-x="1118" d="M692 1636h-94l-240 279h162zM190 0v1516h824l-17 -113h-673v-574h630l-16 -112h-614v-604h698l-16 -113h-816z" />
<glyph unicode="&#xc9;" horiz-adv-x="1118" d="M539 1636l172 279h161l-239 -279h-94zM190 0v1516h824l-17 -113h-673v-574h630l-16 -112h-614v-604h698l-16 -113h-816z" />
<glyph unicode="&#xca;" horiz-adv-x="1118" d="M612 1827l-159 -191h-105l203 279h123l203 -279h-105zM324 113h698l-16 -113h-816v1516h824l-17 -113h-673v-574h630l-16 -112h-614v-604z" />
<glyph unicode="&#xcb;" horiz-adv-x="1118" d="M414 1683v170q25 7 65.5 7t65.5 -7v-170q-25 -7 -65.5 -7t-65.5 7zM688 1683v170q25 7 65 7t66 -7v-170q-26 -7 -66 -7t-65 7zM190 0v1516h824l-17 -113h-673v-574h630l-16 -112h-614v-604h698l-16 -113h-816z" />
<glyph unicode="&#xcc;" horiz-adv-x="512" d="M334 1636h-94l-240 279h162zM190 0v1516h134v-1516h-134z" />
<glyph unicode="&#xcd;" horiz-adv-x="512" d="M180 1636l172 279h162l-240 -279h-94zM190 0v1516h134v-1516h-134z" />
<glyph unicode="&#xce;" horiz-adv-x="512" d="M313 1915l203 -279h-104l-160 191l-160 -191h-104l202 279h123zM190 0v1516h134v-1516h-134z" />
<glyph unicode="&#xcf;" horiz-adv-x="512" d="M53 1683v170q25 7 65.5 7t65.5 -7v-170q-25 -7 -65.5 -7t-65.5 7zM328 1683v170q25 7 65 7t66 -7v-170q-26 -7 -66 -7t-65 7zM190 0v1516h134v-1516h-134z" />
<glyph unicode="&#xd0;" horiz-adv-x="1452" d="M768 1505q130 -18 236 -69.5t187 -137t126 -213.5t45 -288q0 -173 -47 -313.5t-129.5 -233t-183.5 -149.5t-220 -81q-109 -20 -266 -20h-326v686h-118v107h118v723h355q136 0 223 -11zM586 117q289 0 460 178.5t171 497.5q0 298 -159.5 452t-467.5 154h-266v-606h305 v-107h-305v-569h262z" />
<glyph unicode="&#xd1;" horiz-adv-x="1531" d="M623 1774q-31 0 -47 -25.5t-25 -93.5l-78 8q15 215 141 215q31 0 63.5 -11.5t94.5 -43.5q57 -31 81.5 -41t43.5 -10q31 0 47 25t25 93l78 -8q-15 -215 -142 -215q-31 0 -62.5 11.5t-94.5 43.5q-61 33 -84 42.5t-41 9.5zM1214 1516h127v-1516h-120l-904 1282v-1282h-127 v1516h119l905 -1283v1283z" />
<glyph unicode="&#xd2;" horiz-adv-x="1550" d="M852 1636h-94l-240 279h162zM774 1544q142 0 265.5 -52t217 -149t147.5 -248t54 -337t-54 -337t-147.5 -248.5t-217 -149.5t-265.5 -52q-141 0 -264.5 52t-217.5 149.5t-148 248.5t-54 337t54 337t148 248t217.5 149t264.5 52zM774 86q240 0 389.5 182.5t149.5 489.5 t-149.5 489.5t-389.5 182.5q-239 0 -388.5 -182.5t-149.5 -489.5t149.5 -489.5t388.5 -182.5z" />
<glyph unicode="&#xd3;" horiz-adv-x="1550" d="M1032 1915l-239 -279h-95l172 279h162zM774 1544q142 0 265.5 -52t217 -149t147.5 -248t54 -337t-54 -337t-147.5 -248.5t-217 -149.5t-265.5 -52q-141 0 -264.5 52t-217.5 149.5t-148 248.5t-54 337t54 337t148 248t217.5 149t264.5 52zM774 86q240 0 389.5 182.5 t149.5 489.5t-149.5 489.5t-389.5 182.5q-239 0 -388.5 -182.5t-149.5 -489.5t149.5 -489.5t388.5 -182.5z" />
<glyph unicode="&#xd4;" horiz-adv-x="1550" d="M770 1827l-160 -191h-104l203 279h122l203 -279h-104zM774 1544q142 0 265.5 -52t217 -149t147.5 -248t54 -337t-54 -337t-147.5 -248.5t-217 -149.5t-265.5 -52q-141 0 -264.5 52t-217.5 149.5t-148 248.5t-54 337t54 337t148 248t217.5 149t264.5 52zM774 86 q240 0 389.5 182.5t149.5 489.5t-149.5 489.5t-389.5 182.5q-239 0 -388.5 -182.5t-149.5 -489.5t149.5 -489.5t388.5 -182.5z" />
<glyph unicode="&#xd5;" horiz-adv-x="1550" d="M645 1774q-31 0 -47 -25.5t-25 -93.5l-77 8q15 215 141 215q31 0 63.5 -11.5t94.5 -43.5q57 -31 81.5 -41t43.5 -10q31 0 46.5 25t24.5 93l78 -8q-15 -215 -141 -215q-31 0 -63.5 11.5t-94.5 43.5q-61 33 -84 42.5t-41 9.5zM774 1544q142 0 265.5 -52t217 -149 t147.5 -248t54 -337t-54 -337t-147.5 -248.5t-217 -149.5t-265.5 -52q-141 0 -264.5 52t-217.5 149.5t-148 248.5t-54 337t54 337t148 248t217.5 149t264.5 52zM774 86q240 0 389.5 182.5t149.5 489.5t-149.5 489.5t-389.5 182.5q-239 0 -388.5 -182.5t-149.5 -489.5 t149.5 -489.5t388.5 -182.5z" />
<glyph unicode="&#xd6;" horiz-adv-x="1550" d="M702 1683q-25 -7 -65.5 -7t-65.5 7v170q25 7 65.5 7t65.5 -7v-170zM977 1683q-26 -7 -66 -7t-65 7v170q25 7 65 7t66 -7v-170zM774 1544q142 0 265.5 -52t217 -149t147.5 -248t54 -337t-54 -337t-147.5 -248.5t-217 -149.5t-265.5 -52q-141 0 -264.5 52t-217.5 149.5 t-148 248.5t-54 337t54 337t148 248t217.5 149t264.5 52zM774 86q240 0 389.5 182.5t149.5 489.5t-149.5 489.5t-389.5 182.5q-239 0 -388.5 -182.5t-149.5 -489.5t149.5 -489.5t388.5 -182.5z" />
<glyph unicode="&#xd7;" horiz-adv-x="1196" d="M952 897l-286 -287l286 -286l-75 -76l-287 287l-287 -287l-76 76l287 286l-287 287l76 76l287 -287l287 287z" />
<glyph unicode="&#xd8;" horiz-adv-x="1550" d="M1268 1329q190 -213 190 -571q0 -186 -54 -337t-147.5 -248.5t-217 -149.5t-265.5 -52q-227 0 -401 129l-115 -157l-98 53l131 180q-201 214 -201 582q0 186 54 337t148 248t217.5 149t264.5 52q236 0 414 -137l121 166l98 -51zM236 758q0 -290 135 -471l741 1016 q-139 127 -338 127q-239 0 -388.5 -182.5t-149.5 -489.5zM774 86q240 0 389.5 182.5t149.5 489.5q0 278 -127 461l-737 -1016q135 -117 325 -117z" />
<glyph unicode="&#xd9;" horiz-adv-x="1325" d="M739 1636h-94l-239 279h161zM664 -29q-445 0 -488 447q-6 68 -6 258v840h133v-996q0 -121 26 -206.5t76.5 -134.5t115 -71t149.5 -22q352 0 352 434v996h133v-840q0 -190 -6 -258q-20 -215 -145.5 -331t-339.5 -116z" />
<glyph unicode="&#xda;" horiz-adv-x="1325" d="M586 1636l172 279h162l-240 -279h-94zM664 -29q-445 0 -488 447q-6 68 -6 258v840h133v-996q0 -121 26 -206.5t76.5 -134.5t115 -71t149.5 -22q352 0 352 434v996h133v-840q0 -190 -6 -258q-20 -215 -145.5 -331t-339.5 -116z" />
<glyph unicode="&#xdb;" horiz-adv-x="1325" d="M657 1827l-159 -191h-105l203 279h123l203 -279h-105zM1022 1516h133v-840q0 -190 -6 -258q-20 -215 -145.5 -331t-339.5 -116q-445 0 -488 447q-6 68 -6 258v840h133v-996q0 -121 26 -206.5t76.5 -134.5t115 -71t149.5 -22q352 0 352 434v996z" />
<glyph unicode="&#xdc;" horiz-adv-x="1325" d="M461 1683v170q25 7 65.5 7t65.5 -7v-170q-25 -7 -65.5 -7t-65.5 7zM735 1683v170q25 7 65 7t66 -7v-170q-26 -7 -66 -7t-65 7zM664 -29q-445 0 -488 447q-6 68 -6 258v840h133v-996q0 -121 26 -206.5t76.5 -134.5t115 -71t149.5 -22q352 0 352 434v996h133v-840 q0 -190 -6 -258q-20 -215 -145.5 -331t-339.5 -116z" />
<glyph unicode="&#xdd;" horiz-adv-x="1177" d="M856 1915l-240 -279h-94l172 279h162zM1149 1516l-494 -850v-666h-133v668l-485 848h160l397 -736l410 736h145z" />
<glyph unicode="&#xde;" horiz-adv-x="1165" d="M670 1225q194 -21 294.5 -134t100.5 -286q0 -175 -112.5 -293t-303.5 -137q-86 -10 -229 -10h-96v-365h-134v1516h134v-285h104q172 0 242 -6zM535 483q192 -1 290.5 80.5t98.5 237.5q0 313 -367 313h-233v-631h211z" />
<glyph unicode="&#xdf;" horiz-adv-x="1216" d="M907 705q102 -94 147.5 -179t45.5 -188q0 -173 -111.5 -270t-286.5 -97q-133 0 -215 66l48 88q74 -47 178 -47q114 0 182 67.5t68 176.5q0 84 -34.5 153t-113.5 150q-100 102 -133 154t-33 108q0 75 48 123.5t153 72.5q14 55 14 119q0 118 -66.5 187t-193.5 69 q-125 0 -203.5 -89.5t-78.5 -268.5v-1100h-132v928q0 172 9 264q18 167 124.5 270t286.5 103q103 0 179.5 -28.5t121.5 -79.5t66.5 -114.5t21.5 -140.5q0 -107 -45 -198q-103 -19 -140.5 -45.5t-37.5 -69.5q0 -36 30 -78t101 -106z" />
<glyph unicode="&#xe0;" horiz-adv-x="1056" d="M606 1237h-84l-235 319h159zM905 0l-129 -16l-24 104q-170 -117 -334 -117q-143 0 -226 76t-83 246q0 158 115.5 240.5t316.5 82.5q103 0 207 -22v135q0 124 -62 189t-199 65q-136 0 -262 -70l-39 91q155 88 330 88q161 0 256.5 -77.5t104.5 -221.5q2 -47 2 -164v-387 q0 -124 26 -242zM244 303q0 -225 219 -225q147 0 285 96v322q-91 16 -216 16q-288 0 -288 -209z" />
<glyph unicode="&#xe1;" horiz-adv-x="1056" d="M788 1556l-235 -319h-84l160 319h159zM905 0l-129 -16l-24 104q-170 -117 -334 -117q-143 0 -226 76t-83 246q0 158 115.5 240.5t316.5 82.5q103 0 207 -22v135q0 124 -62 189t-199 65q-136 0 -262 -70l-39 91q155 88 330 88q161 0 256.5 -77.5t104.5 -221.5 q2 -47 2 -164v-387q0 -124 26 -242zM244 303q0 -225 219 -225q147 0 285 96v322q-91 16 -216 16q-288 0 -288 -209z" />
<glyph unicode="&#xe2;" horiz-adv-x="1056" d="M526 1462l-151 -225h-96l192 319h117l192 -319h-104zM905 0l-129 -16l-24 104q-170 -117 -334 -117q-143 0 -226 76t-83 246q0 158 115.5 240.5t316.5 82.5q103 0 207 -22v135q0 124 -62 189t-199 65q-136 0 -262 -70l-39 91q155 88 330 88q161 0 256.5 -77.5 t104.5 -221.5q2 -47 2 -164v-387q0 -124 26 -242zM244 303q0 -225 219 -225q147 0 285 96v322q-91 16 -216 16q-288 0 -288 -209z" />
<glyph unicode="&#xe3;" horiz-adv-x="1056" d="M397 1386q-31 0 -46.5 -25t-24.5 -93l-78 8q15 217 141 217q31 0 63.5 -12t94.5 -45q94 -52 125 -52t46.5 26t24.5 93l78 -8q-15 -215 -141 -215q-31 0 -63.5 12t-94.5 45q-91 49 -125 49zM905 0l-129 -16l-24 104q-170 -117 -334 -117q-143 0 -226 76t-83 246 q0 158 115.5 240.5t316.5 82.5q103 0 207 -22v135q0 124 -62 189t-199 65q-136 0 -262 -70l-39 91q155 88 330 88q161 0 256.5 -77.5t104.5 -221.5q2 -47 2 -164v-387q0 -124 26 -242zM244 303q0 -225 219 -225q147 0 285 96v322q-91 16 -216 16q-288 0 -288 -209z" />
<glyph unicode="&#xe4;" horiz-adv-x="1056" d="M463 1284q-25 -8 -65.5 -8t-65.5 8v170q25 8 65.5 8t65.5 -8v-170zM737 1284q-26 -8 -66 -8t-65 8v170q25 8 65 8t66 -8v-170zM905 0l-129 -16l-24 104q-170 -117 -334 -117q-143 0 -226 76t-83 246q0 158 115.5 240.5t316.5 82.5q103 0 207 -22v135q0 124 -62 189 t-199 65q-136 0 -262 -70l-39 91q155 88 330 88q161 0 256.5 -77.5t104.5 -221.5q2 -47 2 -164v-387q0 -124 26 -242zM244 303q0 -225 219 -225q147 0 285 96v322q-91 16 -216 16q-288 0 -288 -209z" />
<glyph unicode="&#xe5;" horiz-adv-x="1056" d="M535 1188q-86 0 -143.5 51.5t-57.5 132.5q0 82 57.5 133t143.5 51q85 0 141.5 -51t56.5 -133q0 -81 -57 -132.5t-141 -51.5zM535 1487q-49 0 -82 -32t-33 -83t33 -83t82 -32q47 0 79.5 32t32.5 83t-32.5 83t-79.5 32zM905 0l-129 -16l-24 104q-170 -117 -334 -117 q-143 0 -226 76t-83 246q0 158 115.5 240.5t316.5 82.5q103 0 207 -22v135q0 124 -62 189t-199 65q-136 0 -262 -70l-39 91q155 88 330 88q161 0 256.5 -77.5t104.5 -221.5q2 -47 2 -164v-387q0 -124 26 -242zM244 303q0 -225 219 -225q147 0 285 96v322q-91 16 -216 16 q-288 0 -288 -209z" />
<glyph unicode="&#xe6;" horiz-adv-x="1695" d="M1202 82q169 0 301 59l33 -96q-160 -74 -342 -74q-268 0 -373 179q-75 -90 -173.5 -134.5t-194.5 -44.5q-158 0 -251 75.5t-93 232.5q0 88 34 154t96.5 105.5t142.5 58.5t179 19q109 0 189 -14q3 51 12 98v15q0 142 -58 206t-192 64q-144 0 -289 -74l-39 88 q154 93 355 93q126 0 197.5 -41.5t101.5 -137.5q112 179 356 179q175 0 266 -102t105 -306q2 -68 2 -178h-688q4 -233 83 -328.5t240 -95.5zM1186 983q-143 0 -219 -88.5t-86 -286.5h559q-3 211 -61 293t-193 82zM471 78q87 0 169 45t138 129q-30 117 -30 250 q-74 10 -195 10q-138 0 -222.5 -54.5t-84.5 -172.5q0 -103 58.5 -155t166.5 -52z" />
<glyph unicode="&#xe7;" horiz-adv-x="952" d="M868 39q-139 -62 -290 -68l-31 -65q86 -7 135 -50t49 -108q0 -84 -69.5 -131t-172.5 -47q-85 0 -135 33l33 69q42 -18 96 -18q63 0 102.5 24t39.5 70q0 50 -49 72t-140 14l62 139q-392 22 -392 541q0 296 128 437t380 141q143 0 258 -54l-24 -92q-118 37 -246 37 q-181 0 -270.5 -104.5t-89.5 -352.5q0 -233 79 -340.5t242 -107.5q132 0 281 53z" />
<glyph unicode="&#xe8;" horiz-adv-x="1044" d="M594 1237h-84l-236 319h160zM561 82q169 0 301 59l31 -96q-157 -74 -340 -74q-232 0 -339.5 130.5t-107.5 414.5q0 296 117.5 436t327.5 140q177 0 268 -102t103 -306q4 -68 4 -178h-690q6 -233 85 -328.5t240 -95.5zM545 983q-143 0 -219.5 -88.5t-85.5 -286.5h559 q-4 212 -61.5 293.5t-192.5 81.5z" />
<glyph unicode="&#xe9;" horiz-adv-x="1044" d="M776 1556l-235 -319h-84l159 319h160zM561 82q169 0 301 59l31 -96q-157 -74 -340 -74q-232 0 -339.5 130.5t-107.5 414.5q0 296 117.5 436t327.5 140q177 0 268 -102t103 -306q4 -68 4 -178h-690q6 -233 85 -328.5t240 -95.5zM545 983q-143 0 -219.5 -88.5t-85.5 -286.5 h559q-4 212 -61.5 293.5t-192.5 81.5z" />
<glyph unicode="&#xea;" horiz-adv-x="1044" d="M514 1462l-152 -225h-96l193 319h116l193 -319h-104zM561 82q169 0 301 59l31 -96q-157 -74 -340 -74q-232 0 -339.5 130.5t-107.5 414.5q0 296 117.5 436t327.5 140q177 0 268 -102t103 -306q4 -68 4 -178h-690q6 -233 85 -328.5t240 -95.5zM545 983 q-143 0 -219.5 -88.5t-85.5 -286.5h559q-4 212 -61.5 293.5t-192.5 81.5z" />
<glyph unicode="&#xeb;" horiz-adv-x="1044" d="M451 1284q-25 -8 -66 -8t-66 8v170q25 8 66 8t66 -8v-170zM725 1284q-26 -8 -66 -8t-65 8v170q25 8 65 8t66 -8v-170zM561 82q169 0 301 59l31 -96q-157 -74 -340 -74q-232 0 -339.5 130.5t-107.5 414.5q0 296 117.5 436t327.5 140q177 0 268 -102t103 -306q4 -68 4 -178 h-690q6 -233 85 -328.5t240 -95.5zM545 983q-143 0 -219.5 -88.5t-85.5 -286.5h559q-4 212 -61.5 293.5t-192.5 81.5z" />
<glyph unicode="&#xec;" horiz-adv-x="509" d="M244 1237l-236 319h160l160 -319h-84zM190 0v1059l132 18v-1077h-132z" />
<glyph unicode="&#xed;" horiz-adv-x="509" d="M190 1237l160 319h160l-236 -319h-84zM190 0v1059l132 18v-1077h-132z" />
<glyph unicode="&#xee;" horiz-adv-x="509" d="M309 1556l193 -319h-105l-149 225l-152 -225h-96l193 319h116zM190 0v1059l132 18v-1077h-132z" />
<glyph unicode="&#xef;" horiz-adv-x="509" d="M53 1284v170q25 8 65.5 8t65.5 -8v-170q-25 -8 -65.5 -8t-65.5 8zM328 1284v170q25 8 65 8t66 -8v-170q-26 -8 -66 -8t-65 8zM190 0v1059l132 18v-1077h-132z" />
<glyph unicode="&#xf0;" horiz-adv-x="1150" d="M815 1313q201 -245 201 -643q0 -160 -26 -283.5t-69 -201t-105.5 -126.5t-128.5 -68.5t-144 -19.5q-206 0 -321.5 137.5t-115.5 389.5q0 271 144.5 429t390.5 158q122 0 195 -51q-47 137 -142 240l-231 -74v98l155 50q-94 81 -219 145l105 63q141 -72 239 -167l218 69 v-100zM885 674q0 151 -25 268q-101 37 -219 37q-85 0 -156 -27.5t-126 -82.5t-86 -148t-31 -215q0 -207 83 -317.5t228 -110.5q160 0 245.5 140t86.5 456z" />
<glyph unicode="&#xf1;" horiz-adv-x="1159" d="M446 1386q-31 0 -46.5 -25t-24.5 -93l-78 8q15 217 141 217q31 0 63.5 -12t94.5 -45q94 -52 125 -52t47 26t25 93l77 -8q-15 -215 -141 -215q-31 0 -63.5 12t-94.5 45q-91 49 -125 49zM995 805q4 -47 4 -162v-643h-131v690q0 158 -63.5 225.5t-204.5 67.5 q-146 0 -278 -106v-877h-132v1059l132 18v-94q147 109 327 109q157 0 245 -67.5t101 -219.5z" />
<glyph unicode="&#xf2;" horiz-adv-x="1171" d="M657 1237h-84l-235 319h160zM586 1090q224 0 351.5 -143.5t127.5 -416.5q0 -272 -127.5 -415.5t-351.5 -143.5t-352 143.5t-128 415.5q0 273 128 416.5t352 143.5zM586 80q158 0 250 112t92 338q0 228 -92 340.5t-250 112.5q-159 0 -250.5 -112.5t-91.5 -340.5 q0 -227 91.5 -338.5t250.5 -111.5z" />
<glyph unicode="&#xf3;" horiz-adv-x="1171" d="M842 1556l-236 -319h-84l160 319h160zM586 1090q224 0 351.5 -143.5t127.5 -416.5q0 -272 -127.5 -415.5t-351.5 -143.5t-352 143.5t-128 415.5q0 273 128 416.5t352 143.5zM586 80q158 0 250 112t92 338q0 228 -92 340.5t-250 112.5q-159 0 -250.5 -112.5t-91.5 -340.5 q0 -227 91.5 -338.5t250.5 -111.5z" />
<glyph unicode="&#xf4;" horiz-adv-x="1171" d="M578 1462l-152 -225h-96l192 319h117l192 -319h-104zM586 1090q224 0 351.5 -143.5t127.5 -416.5q0 -272 -127.5 -415.5t-351.5 -143.5t-352 143.5t-128 415.5q0 273 128 416.5t352 143.5zM586 80q158 0 250 112t92 338q0 228 -92 340.5t-250 112.5q-159 0 -250.5 -112.5 t-91.5 -340.5q0 -227 91.5 -338.5t250.5 -111.5z" />
<glyph unicode="&#xf5;" horiz-adv-x="1171" d="M449 1386q-31 0 -47 -25t-25 -93l-78 8q15 217 141 217q31 0 63.5 -12t94.5 -45q94 -52 125 -52t47 26t25 93l77 -8q-15 -215 -141 -215q-31 0 -63.5 12t-94.5 45q-58 31 -81 40t-43 9zM586 1090q224 0 351.5 -143.5t127.5 -416.5q0 -272 -127.5 -415.5t-351.5 -143.5 t-352 143.5t-128 415.5q0 273 128 416.5t352 143.5zM586 80q158 0 250 112t92 338q0 228 -92 340.5t-250 112.5q-159 0 -250.5 -112.5t-91.5 -340.5q0 -227 91.5 -338.5t250.5 -111.5z" />
<glyph unicode="&#xf6;" horiz-adv-x="1171" d="M514 1284q-25 -8 -65.5 -8t-65.5 8v170q25 8 65.5 8t65.5 -8v-170zM788 1284q-26 -8 -66 -8t-65 8v170q25 8 65 8t66 -8v-170zM586 1090q224 0 351.5 -143.5t127.5 -416.5q0 -272 -127.5 -415.5t-351.5 -143.5t-352 143.5t-128 415.5q0 273 128 416.5t352 143.5zM586 80 q158 0 250 112t92 338q0 228 -92 340.5t-250 112.5q-159 0 -250.5 -112.5t-91.5 -340.5q0 -227 91.5 -338.5t250.5 -111.5z" />
<glyph unicode="&#xf7;" horiz-adv-x="1228" d="M526 840v211q26 7 71 7t71 -7v-211q-26 -8 -71 -8t-71 8zM164 561v103h860v-103h-860zM526 174v211q26 7 71 7t71 -7v-211q-26 -6 -71 -6t-71 6z" />
<glyph unicode="&#xf8;" horiz-adv-x="1179" d="M932 952q133 -145 133 -422q0 -272 -127.5 -415.5t-351.5 -143.5q-170 0 -283 82l-76 -110l-96 53l92 133q-117 142 -117 401q0 273 128 416.5t352 143.5q153 0 262 -68l67 96l97 -53zM244 530q0 -179 59 -288l477 684q-80 57 -194 57q-159 0 -250.5 -112.5t-91.5 -340.5 zM586 80q158 0 250 112t92 338q0 197 -72 312l-483 -690q84 -72 213 -72z" />
<glyph unicode="&#xf9;" d="M641 1237h-84l-235 319h159zM827 1053l131 18v-1071h-131v86q-138 -111 -327 -111q-321 0 -346 297q-4 47 -4 164v617l131 18v-694q0 -159 62 -227t200 -68q149 0 284 106v865z" />
<glyph unicode="&#xfa;" d="M823 1556l-235 -319h-84l160 319h159zM827 1053l131 18v-1071h-131v86q-138 -111 -327 -111q-321 0 -346 297q-4 47 -4 164v617l131 18v-694q0 -159 62 -227t200 -68q149 0 284 106v865z" />
<glyph unicode="&#xfb;" d="M561 1462l-151 -225h-97l193 319h117l192 -319h-104zM827 1053l131 18v-1071h-131v86q-138 -111 -327 -111q-321 0 -346 297q-4 47 -4 164v617l131 18v-694q0 -159 62 -227t200 -68q149 0 284 106v865z" />
<glyph unicode="&#xfc;" d="M498 1284q-25 -8 -65.5 -8t-65.5 8v170q25 8 65.5 8t65.5 -8v-170zM772 1284q-26 -8 -66 -8t-65 8v170q25 8 65 8t66 -8v-170zM827 1053l131 18v-1071h-131v86q-138 -111 -327 -111q-321 0 -346 297q-4 47 -4 164v617l131 18v-694q0 -159 62 -227t200 -68q149 0 284 106 v865z" />
<glyph unicode="&#xfd;" horiz-adv-x="1067" d="M788 1556l-235 -319h-84l160 319h159zM868 1063h148l-387 -911q-120 -283 -228.5 -415t-267.5 -188l-70 101q258 99 388 387l-396 1026h150l315 -909z" />
<glyph unicode="&#xfe;" d="M565 1092q112 0 196.5 -27.5t148.5 -89t97 -166.5t33 -252q0 -282 -123.5 -434t-375.5 -152q-120 0 -219 21v-402l-132 -18v1462v506l132 16v-489q122 25 243 25zM553 78q352 0 352 459q0 239 -89.5 342.5t-278.5 103.5q-123 0 -215 -25v-852q123 -28 231 -28z" />
<glyph unicode="&#xff;" horiz-adv-x="1067" d="M461 1284q-25 -8 -65.5 -8t-65.5 8v170q25 8 65.5 8t65.5 -8v-170zM735 1284q-26 -8 -66 -8t-65 8v170q25 8 65 8t66 -8v-170zM868 1063h148l-387 -911q-120 -283 -228.5 -415t-267.5 -188l-70 101q258 99 388 387l-396 1026h150l315 -909z" />
<glyph unicode="&#x152;" horiz-adv-x="2076" d="M90 758q0 186 54 337t148 248t217.5 149t264.5 52v-114q-239 0 -388.5 -182.5t-149.5 -489.5t149.5 -489.5t388.5 -182.5v-115q-141 0 -264.5 52t-217.5 149.5t-148 248.5t-54 337zM1282 113h700l-16 -113h-784q-57 0 -192.5 -14.5t-215.5 -14.5v115q165 0 375 33v1278 q-219 33 -375 33v114q80 0 215.5 -14t192.5 -14h792l-16 -113h-676v-574h633l-19 -112h-614v-604z" />
<glyph unicode="&#x153;" horiz-adv-x="1857" d="M1378 82q169 0 301 59l33 -96q-157 -74 -342 -74q-161 0 -260 61t-145 189q-51 -119 -146.5 -184.5t-232.5 -65.5q-224 0 -352 143.5t-128 415.5q0 273 128 416.5t352 143.5q142 0 239 -69.5t146 -195.5q100 267 399 267q177 0 267 -101.5t104 -306.5q2 -68 2 -178h-688 q4 -232 83.5 -328t239.5 -96zM1362 983q-143 0 -219 -88.5t-86 -286.5h559q-3 211 -61 293t-193 82zM586 80q156 0 243 106.5t95 305.5v24v43q-5 203 -92.5 313.5t-245.5 110.5q-159 0 -250.5 -112.5t-91.5 -340.5q0 -227 91.5 -338.5t250.5 -111.5z" />
<glyph unicode="&#x178;" horiz-adv-x="1177" d="M528 1683q-25 -7 -65.5 -7t-65.5 7v170q25 7 65.5 7t65.5 -7v-170zM803 1683q-26 -7 -66 -7t-65 7v170q25 7 65 7t66 -7v-170zM1149 1516l-494 -850v-666h-133v668l-485 848h160l397 -736l410 736h145z" />
<glyph unicode="&#x2c6;" horiz-adv-x="665" d="M584 1237h-105l-151 225l-150 -225h-96l192 319h117z" />
<glyph unicode="&#x2dc;" horiz-adv-x="737" d="M655 1495q-15 -215 -141 -215q-31 0 -63.5 12t-94.5 45q-91 49 -125 49q-31 0 -46.5 -25t-24.5 -93l-78 8q15 217 141 217q31 0 63.5 -12t94.5 -45q94 -52 125 -52t47 26t25 93z" />
<glyph unicode="&#x2000;" horiz-adv-x="974" />
<glyph unicode="&#x2001;" horiz-adv-x="1948" />
<glyph unicode="&#x2002;" horiz-adv-x="974" />
<glyph unicode="&#x2003;" horiz-adv-x="1948" />
<glyph unicode="&#x2004;" horiz-adv-x="649" />
<glyph unicode="&#x2005;" horiz-adv-x="487" />
<glyph unicode="&#x2006;" horiz-adv-x="324" />
<glyph unicode="&#x2007;" horiz-adv-x="324" />
<glyph unicode="&#x2008;" horiz-adv-x="243" />
<glyph unicode="&#x2009;" horiz-adv-x="389" />
<glyph unicode="&#x200a;" horiz-adv-x="108" />
<glyph unicode="&#x2010;" horiz-adv-x="794" d="M188 545v100h418v-100h-418z" />
<glyph unicode="&#x2011;" horiz-adv-x="794" d="M188 545v100h418v-100h-418z" />
<glyph unicode="&#x2012;" horiz-adv-x="794" d="M188 545v100h418v-100h-418z" />
<glyph unicode="&#x2013;" horiz-adv-x="1024" d="M188 545v100h648v-100h-648z" />
<glyph unicode="&#x2014;" horiz-adv-x="2048" d="M188 545v100h1672v-100h-1672z" />
<glyph unicode="&#x2018;" horiz-adv-x="448" d="M422 1516q-90 -141 -127 -267t-27 -280q-24 -12 -64.5 -19.5t-68.5 -5.5q-13 166 31 299.5t149 272.5h107z" />
<glyph unicode="&#x2019;" horiz-adv-x="448" d="M27 973q90 139 126.5 265.5t24.5 281.5q25 11 66.5 18t68.5 6q13 -167 -31.5 -299t-150.5 -272h-104z" />
<glyph unicode="&#x201a;" horiz-adv-x="509" d="M6 -336q91 140 128.5 267t25.5 280q25 11 66 18.5t67 6.5q14 -167 -30 -299.5t-150 -272.5h-107z" />
<glyph unicode="&#x201c;" horiz-adv-x="741" d="M422 1516q-90 -140 -127 -267t-25 -280q-25 -11 -66.5 -18.5t-68.5 -6.5q-13 167 31.5 299.5t150.5 272.5h105zM715 1516q-90 -140 -127 -267t-25 -280q-25 -11 -66.5 -18.5t-68.5 -6.5q-13 167 31.5 299.5t150.5 272.5h105z" />
<glyph unicode="&#x201d;" horiz-adv-x="741" d="M319 973q91 140 128.5 267t25.5 280q25 11 66 18t67 6q14 -167 -30 -299t-150 -272h-107zM27 973q90 139 126.5 265.5t24.5 281.5q25 11 66.5 18t68.5 6q13 -167 -31.5 -299t-150.5 -272h-104z" />
<glyph unicode="&#x201e;" horiz-adv-x="802" d="M301 -336q90 139 127 266t27 281q26 11 66 18.5t67 6.5q13 -168 -31 -300.5t-149 -271.5h-107zM6 -336q91 140 128.5 267t25.5 280q25 11 66 18.5t67 6.5q14 -167 -30 -299.5t-150 -272.5h-107z" />
<glyph unicode="&#x2022;" horiz-adv-x="542" d="M172 459v334q38 9 99.5 9t101.5 -9v-334q-40 -9 -101.5 -9t-99.5 9z" />
<glyph unicode="&#x2026;" horiz-adv-x="1316" d="M543 0v236q26 8 70.5 8t70.5 -8v-236q-26 -8 -70.5 -8t-70.5 8zM944 0v236q28 8 71.5 8t69.5 -8v-236q-26 -8 -69.5 -8t-71.5 8zM141 0v236q26 8 71 8t71 -8v-236q-26 -8 -71 -8t-71 8z" />
<glyph unicode="&#x202f;" horiz-adv-x="389" />
<glyph unicode="&#x2039;" horiz-adv-x="655" d="M485 172l-329 336l329 336l66 -49l-260 -287l260 -287z" />
<glyph unicode="&#x203a;" horiz-adv-x="655" d="M172 844l330 -336l-330 -336l-68 49l263 287l-263 287z" />
<glyph unicode="&#x205f;" horiz-adv-x="487" />
<glyph unicode="&#x20ac;" d="M352 565q25 -256 124 -368.5t269 -112.5t312 82l-8 -115q-137 -82 -320 -82q-110 0 -197 32t-156 101t-112 185.5t-57 277.5h-158l17 103h137q-2 20 -2 61q0 43 4 121h-119l16 102h113q38 294 178 442t363 148q201 0 319 -106l-43 -95q-55 40 -130 64.5t-150 24.5 q-166 0 -266.5 -119.5t-129.5 -358.5h535l-19 -102h-524q-4 -70 -4 -107q0 -14 1 -38.5t1 -36.5h504l-14 -103h-484z" />
<glyph unicode="&#x2122;" horiz-adv-x="1368" d="M66 459v96h501l-8 -96h-192v-459h-107v459h-194zM1274 0h-107l-47 414l-147 -398h-88l-131 379l-41 -395h-99l58 555h129l133 -401l143 401h137z" />
<glyph unicode="&#x25fc;" horiz-adv-x="1064" d="M0 1065h1065v-1065h-1065v1065z" />
</font>
</defs>
</svg>
