<svg xmlns="http://www.w3.org/2000/svg" viewBox="0 0 200 200">
  <path d="M184.5,150.9a98.3,98.3,0,0,1-169,0c8.4-10.3,22.1-18.8,39-24.3A26.6,26.6,0,0,0,77,148c8,4.5,15.8,6.8,23,6.8s15-2.3,23-6.8a26.6,26.6,0,0,0,22.5-21.4C162.4,132.1,176.1,140.6,184.5,150.9ZM143,58.4c0-8-19.2-14.4-43-14.4S57,50.4,57,58.4c0,.4,8.2,41.7,12.2,61.5a14.5,14.5,0,0,0-.8,4.7,14.3,14.3,0,0,0,14.1,14.3c5.1,3.1,11.3,5.8,17.5,5.8s12.4-2.7,17.5-5.8a14.3,14.3,0,0,0,14.1-14.3,14.5,14.5,0,0,0-.8-4.7C132.1,113.3,143,58.5,143,58.4ZM84.2,131.9a7.4,7.4,0,1,1,7.4-7.4A7.4,7.4,0,0,1,84.2,131.9Zm31.6,0a7.4,7.4,0,1,1,7.4-7.4A7.4,7.4,0,0,1,115.8,131.9ZM100,69.7c-15.6,0-28.3-4.2-28.3-9.4s12.7-9.5,28.3-9.5,28.3,4.3,28.3,9.5S115.6,69.7,100,69.7Zm95.7,56.2a100.4,100.4,0,0,0,3.3-25.6C199,45.5,154.6,1,100,1S1,45.5,1,100.3a100.4,100.4,0,0,0,3.3,25.6,12.4,12.4,0,0,0,15.1,8.8,12.3,12.3,0,0,0,8.7-15.1,74.4,74.4,0,1,1,143.8,0,12.3,12.3,0,0,0,8.7,15.1,17.5,17.5,0,0,0,3.2.4A12.5,12.5,0,0,0,195.7,125.9Z"/>
</svg>
